<svg xmlns="http://www.w3.org/2000/svg" xmlns:xlink="http://www.w3.org/1999/xlink" width="560pt" height="411pt" viewBox="0 0 560 411" version="1.1"><defs><g><symbol overflow="visible" id="glyph0-0"><path style="stroke:none;" d="M 1.5 0 L 1.5 -7.5 L 7.5 -7.5 L 7.5 0 Z M 1.6875 -0.1875 L 7.3125 -0.1875 L 7.3125 -7.3125 L 1.6875 -7.3125 Z M 1.6875 -0.1875 "/></symbol><symbol overflow="visible" id="glyph0-1"><path style="stroke:none;" d="M 1.765625 0 L 0.785156 0 L 0.785156 -8.589844 L 1.839844 -8.589844 L 1.839844 -5.523438 C 2.285156 -6.082031 2.851563 -6.363281 3.546875 -6.363281 C 3.921875 -6.363281 4.285156 -6.285156 4.628906 -6.128906 C 4.972656 -5.972656 5.253906 -5.753906 5.472656 -5.480469 C 5.691406 -5.199219 5.863281 -4.863281 5.992188 -4.46875 C 6.113281 -4.074219 6.175781 -3.652344 6.179688 -3.203125 C 6.175781 -2.136719 5.914063 -1.3125 5.390625 -0.730469 C 4.863281 -0.148438 4.230469 0.140625 3.492188 0.140625 C 2.757813 0.140625 2.179688 -0.164063 1.765625 -0.78125 Z M 1.75 -3.15625 C 1.746094 -2.410156 1.847656 -1.871094 2.054688 -1.539063 C 2.386719 -0.996094 2.835938 -0.726563 3.40625 -0.726563 C 3.859375 -0.726563 4.257813 -0.925781 4.597656 -1.328125 C 4.929688 -1.726563 5.097656 -2.324219 5.101563 -3.117188 C 5.097656 -3.929688 4.9375 -4.527344 4.617188 -4.914063 C 4.296875 -5.300781 3.90625 -5.496094 3.453125 -5.496094 C 2.984375 -5.496094 2.585938 -5.292969 2.253906 -4.894531 C 1.914063 -4.492188 1.746094 -3.914063 1.75 -3.15625 Z M 1.75 -3.15625 "/></symbol><symbol overflow="visible" id="glyph0-2"><path style="stroke:none;" d="M 4.851563 -0.765625 C 4.460938 -0.433594 4.082031 -0.199219 3.722656 -0.0625 C 3.355469 0.0742188 2.96875 0.140625 2.5625 0.140625 C 1.875 0.140625 1.351563 -0.0234375 0.984375 -0.359375 C 0.617188 -0.6875 0.433594 -1.117188 0.433594 -1.640625 C 0.433594 -1.945313 0.5 -2.222656 0.640625 -2.472656 C 0.777344 -2.722656 0.960938 -2.925781 1.1875 -3.082031 C 1.410156 -3.234375 1.664063 -3.347656 1.945313 -3.429688 C 2.152344 -3.476563 2.464844 -3.53125 2.882813 -3.585938 C 3.734375 -3.6875 4.359375 -3.808594 4.765625 -3.949219 C 4.765625 -4.089844 4.769531 -4.179688 4.769531 -4.226563 C 4.769531 -4.648438 4.667969 -4.953125 4.46875 -5.132813 C 4.199219 -5.371094 3.800781 -5.488281 3.269531 -5.492188 C 2.769531 -5.488281 2.402344 -5.402344 2.167969 -5.230469 C 1.933594 -5.054688 1.757813 -4.746094 1.648438 -4.304688 L 0.617188 -4.445313 C 0.707031 -4.886719 0.863281 -5.242188 1.078125 -5.515625 C 1.289063 -5.78125 1.597656 -5.992188 2.007813 -6.140625 C 2.410156 -6.289063 2.882813 -6.363281 3.421875 -6.363281 C 3.953125 -6.363281 4.382813 -6.300781 4.714844 -6.175781 C 5.046875 -6.050781 5.292969 -5.890625 5.449219 -5.703125 C 5.605469 -5.511719 5.714844 -5.273438 5.777344 -4.984375 C 5.808594 -4.804688 5.824219 -4.480469 5.828125 -4.015625 L 5.828125 -2.609375 C 5.824219 -1.625 5.847656 -1.003906 5.894531 -0.746094 C 5.941406 -0.484375 6.03125 -0.238281 6.164063 0 L 5.0625 0 C 4.953125 -0.21875 4.882813 -0.472656 4.851563 -0.765625 Z M 4.765625 -3.125 C 4.375 -2.964844 3.800781 -2.832031 3.039063 -2.726563 C 2.605469 -2.660156 2.300781 -2.589844 2.121094 -2.515625 C 1.941406 -2.433594 1.800781 -2.320313 1.703125 -2.171875 C 1.605469 -2.019531 1.558594 -1.851563 1.558594 -1.671875 C 1.558594 -1.386719 1.664063 -1.152344 1.875 -0.96875 C 2.085938 -0.777344 2.398438 -0.683594 2.8125 -0.6875 C 3.21875 -0.683594 3.578125 -0.773438 3.894531 -0.953125 C 4.210938 -1.128906 4.445313 -1.371094 4.59375 -1.679688 C 4.707031 -1.917969 4.761719 -2.269531 4.765625 -2.734375 Z M 4.765625 -3.125 "/></symbol><symbol overflow="visible" id="glyph0-3"><path style="stroke:none;" d="M 0.367188 -1.859375 L 1.414063 -2.023438 C 1.46875 -1.601563 1.632813 -1.28125 1.902344 -1.058594 C 2.167969 -0.835938 2.542969 -0.726563 3.023438 -0.726563 C 3.507813 -0.726563 3.867188 -0.824219 4.101563 -1.023438 C 4.335938 -1.21875 4.453125 -1.449219 4.453125 -1.71875 C 4.453125 -1.953125 4.347656 -2.140625 4.140625 -2.28125 C 3.996094 -2.371094 3.636719 -2.492188 3.0625 -2.636719 C 2.289063 -2.832031 1.753906 -3 1.457031 -3.144531 C 1.15625 -3.285156 0.929688 -3.480469 0.777344 -3.734375 C 0.621094 -3.984375 0.542969 -4.265625 0.546875 -4.570313 C 0.542969 -4.84375 0.605469 -5.097656 0.734375 -5.339844 C 0.859375 -5.574219 1.035156 -5.773438 1.253906 -5.929688 C 1.417969 -6.046875 1.640625 -6.148438 1.925781 -6.234375 C 2.207031 -6.320313 2.511719 -6.363281 2.835938 -6.363281 C 3.324219 -6.363281 3.75 -6.292969 4.121094 -6.152344 C 4.488281 -6.011719 4.761719 -5.820313 4.9375 -5.578125 C 5.113281 -5.335938 5.234375 -5.015625 5.304688 -4.617188 L 4.273438 -4.476563 C 4.222656 -4.796875 4.085938 -5.046875 3.863281 -5.226563 C 3.636719 -5.40625 3.320313 -5.496094 2.914063 -5.496094 C 2.425781 -5.496094 2.082031 -5.414063 1.875 -5.253906 C 1.664063 -5.09375 1.558594 -4.90625 1.5625 -4.695313 C 1.558594 -4.554688 1.601563 -4.433594 1.695313 -4.324219 C 1.773438 -4.210938 1.910156 -4.117188 2.097656 -4.042969 C 2.203125 -4.003906 2.511719 -3.914063 3.03125 -3.773438 C 3.773438 -3.574219 4.292969 -3.410156 4.589844 -3.285156 C 4.878906 -3.15625 5.113281 -2.972656 5.285156 -2.730469 C 5.453125 -2.488281 5.535156 -2.1875 5.539063 -1.828125 C 5.535156 -1.476563 5.433594 -1.144531 5.230469 -0.832031 C 5.023438 -0.519531 4.726563 -0.277344 4.339844 -0.113281 C 3.953125 0.0585938 3.515625 0.140625 3.03125 0.140625 C 2.21875 0.140625 1.601563 -0.0273438 1.179688 -0.363281 C 0.753906 -0.699219 0.484375 -1.195313 0.367188 -1.859375 Z M 0.367188 -1.859375 "/></symbol><symbol overflow="visible" id="glyph0-4"><path style="stroke:none;" d="M 5.050781 -2.003906 L 6.140625 -1.867188 C 5.96875 -1.230469 5.648438 -0.738281 5.183594 -0.386719 C 4.71875 -0.0351563 4.125 0.140625 3.40625 0.140625 C 2.492188 0.140625 1.769531 -0.136719 1.238281 -0.699219 C 0.699219 -1.253906 0.433594 -2.042969 0.4375 -3.058594 C 0.433594 -4.105469 0.703125 -4.917969 1.246094 -5.496094 C 1.78125 -6.074219 2.480469 -6.363281 3.34375 -6.363281 C 4.175781 -6.363281 4.855469 -6.078125 5.382813 -5.511719 C 5.910156 -4.945313 6.175781 -4.148438 6.175781 -3.125 C 6.175781 -3.058594 6.171875 -2.964844 6.171875 -2.84375 L 1.53125 -2.84375 C 1.5625 -2.15625 1.757813 -1.632813 2.109375 -1.269531 C 2.457031 -0.90625 2.890625 -0.726563 3.410156 -0.726563 C 3.796875 -0.726563 4.125 -0.828125 4.402344 -1.03125 C 4.671875 -1.234375 4.890625 -1.558594 5.050781 -2.003906 Z M 1.585938 -3.710938 L 5.0625 -3.710938 C 5.015625 -4.226563 4.882813 -4.621094 4.664063 -4.886719 C 4.328125 -5.292969 3.890625 -5.496094 3.359375 -5.496094 C 2.871094 -5.496094 2.464844 -5.332031 2.136719 -5.007813 C 1.804688 -4.683594 1.621094 -4.25 1.585938 -3.710938 Z M 1.585938 -3.710938 "/></symbol><symbol overflow="visible" id="glyph0-5"><path style="stroke:none;" d="M 0.765625 0 L 0.765625 -8.589844 L 1.820313 -8.589844 L 1.820313 0 Z M 0.765625 0 "/></symbol><symbol overflow="visible" id="glyph0-6"><path style="stroke:none;" d="M 0.796875 -7.375 L 0.796875 -8.589844 L 1.851563 -8.589844 L 1.851563 -7.375 Z M 0.796875 0 L 0.796875 -6.222656 L 1.851563 -6.222656 L 1.851563 0 Z M 0.796875 0 "/></symbol><symbol overflow="visible" id="glyph0-7"><path style="stroke:none;" d="M 0.789063 0 L 0.789063 -6.222656 L 1.742188 -6.222656 L 1.742188 -5.335938 C 2.195313 -6.019531 2.855469 -6.363281 3.71875 -6.363281 C 4.089844 -6.363281 4.433594 -6.292969 4.753906 -6.160156 C 5.066406 -6.023438 5.304688 -5.847656 5.460938 -5.632813 C 5.617188 -5.410156 5.726563 -5.152344 5.789063 -4.851563 C 5.828125 -4.65625 5.847656 -4.3125 5.847656 -3.828125 L 5.847656 0 L 4.792969 0 L 4.792969 -3.785156 C 4.792969 -4.214844 4.75 -4.535156 4.667969 -4.75 C 4.585938 -4.960938 4.441406 -5.128906 4.234375 -5.257813 C 4.023438 -5.382813 3.777344 -5.449219 3.5 -5.449219 C 3.046875 -5.449219 2.660156 -5.304688 2.332031 -5.019531 C 2.003906 -4.734375 1.839844 -4.195313 1.84375 -3.398438 L 1.84375 0 Z M 0.789063 0 "/></symbol><symbol overflow="visible" id="glyph0-8"><path style="stroke:none;" d="M 0.945313 0 L 0.945313 -8.589844 L 4.75 -8.589844 C 5.511719 -8.589844 6.09375 -8.511719 6.496094 -8.355469 C 6.890625 -8.199219 7.210938 -7.925781 7.453125 -7.539063 C 7.691406 -7.144531 7.808594 -6.714844 7.8125 -6.246094 C 7.808594 -5.636719 7.613281 -5.121094 7.21875 -4.703125 C 6.820313 -4.285156 6.210938 -4.019531 5.390625 -3.90625 C 5.691406 -3.761719 5.917969 -3.621094 6.078125 -3.480469 C 6.40625 -3.175781 6.722656 -2.792969 7.019531 -2.335938 L 8.515625 0 L 7.085938 0 L 5.945313 -1.789063 C 5.613281 -2.300781 5.339844 -2.695313 5.125 -2.972656 C 4.910156 -3.242188 4.71875 -3.433594 4.550781 -3.546875 C 4.378906 -3.652344 4.207031 -3.730469 4.03125 -3.773438 C 3.898438 -3.796875 3.6875 -3.808594 3.398438 -3.8125 L 2.078125 -3.8125 L 2.078125 0 Z M 2.078125 -4.796875 L 4.523438 -4.796875 C 5.042969 -4.792969 5.449219 -4.847656 5.742188 -4.957031 C 6.03125 -5.066406 6.253906 -5.238281 6.410156 -5.472656 C 6.5625 -5.707031 6.636719 -5.964844 6.640625 -6.246094 C 6.636719 -6.652344 6.488281 -6.984375 6.195313 -7.246094 C 5.898438 -7.507813 5.433594 -7.640625 4.796875 -7.640625 L 2.078125 -7.640625 Z M 2.078125 -4.796875 "/></symbol><symbol overflow="visible" id="glyph0-9"><path style="stroke:none;" d="M 1.042969 0 L 1.042969 -5.402344 L 0.109375 -5.402344 L 0.109375 -6.222656 L 1.042969 -6.222656 L 1.042969 -6.882813 C 1.042969 -7.300781 1.078125 -7.613281 1.15625 -7.816406 C 1.25 -8.089844 1.429688 -8.308594 1.6875 -8.480469 C 1.945313 -8.644531 2.304688 -8.730469 2.765625 -8.734375 C 3.0625 -8.730469 3.390625 -8.695313 3.75 -8.632813 L 3.59375 -7.710938 C 3.371094 -7.75 3.164063 -7.769531 2.96875 -7.769531 C 2.648438 -7.769531 2.421875 -7.699219 2.292969 -7.5625 C 2.15625 -7.425781 2.089844 -7.171875 2.09375 -6.796875 L 2.09375 -6.222656 L 3.304688 -6.222656 L 3.304688 -5.402344 L 2.09375 -5.402344 L 2.09375 0 Z M 1.042969 0 "/></symbol><symbol overflow="visible" id="glyph0-10"><path style="stroke:none;" d="M 3.09375 -0.945313 L 3.246094 -0.0117188 C 2.949219 0.0507813 2.683594 0.0820313 2.449219 0.0820313 C 2.066406 0.0820313 1.769531 0.0234375 1.558594 -0.0976563 C 1.347656 -0.21875 1.199219 -0.378906 1.113281 -0.578125 C 1.027344 -0.773438 0.984375 -1.1875 0.984375 -1.820313 L 0.984375 -5.402344 L 0.210938 -5.402344 L 0.210938 -6.222656 L 0.984375 -6.222656 L 0.984375 -7.765625 L 2.03125 -8.398438 L 2.03125 -6.222656 L 3.09375 -6.222656 L 3.09375 -5.402344 L 2.03125 -5.402344 L 2.03125 -1.765625 C 2.027344 -1.460938 2.046875 -1.269531 2.085938 -1.183594 C 2.125 -1.097656 2.183594 -1.027344 2.269531 -0.976563 C 2.351563 -0.925781 2.472656 -0.902344 2.632813 -0.902344 C 2.742188 -0.902344 2.898438 -0.914063 3.09375 -0.945313 Z M 3.09375 -0.945313 "/></symbol><symbol overflow="visible" id="glyph0-11"><path style="stroke:none;" d="M 4.828125 0 L 4.828125 -0.785156 C 4.429688 -0.167969 3.847656 0.140625 3.085938 0.140625 C 2.589844 0.140625 2.132813 0.00390625 1.71875 -0.269531 C 1.296875 -0.542969 0.976563 -0.921875 0.75 -1.414063 C 0.523438 -1.898438 0.410156 -2.464844 0.410156 -3.105469 C 0.410156 -3.726563 0.511719 -4.289063 0.71875 -4.796875 C 0.925781 -5.300781 1.238281 -5.6875 1.652344 -5.957031 C 2.066406 -6.226563 2.527344 -6.363281 3.039063 -6.363281 C 3.410156 -6.363281 3.746094 -6.28125 4.042969 -6.125 C 4.335938 -5.964844 4.574219 -5.761719 4.757813 -5.507813 L 4.757813 -8.589844 L 5.804688 -8.589844 L 5.804688 0 Z M 1.492188 -3.105469 C 1.488281 -2.308594 1.65625 -1.710938 1.996094 -1.316406 C 2.328125 -0.921875 2.726563 -0.726563 3.1875 -0.726563 C 3.648438 -0.726563 4.039063 -0.914063 4.359375 -1.292969 C 4.679688 -1.667969 4.839844 -2.242188 4.84375 -3.015625 C 4.839844 -3.867188 4.675781 -4.492188 4.351563 -4.894531 C 4.019531 -5.289063 3.617188 -5.488281 3.140625 -5.492188 C 2.671875 -5.488281 2.277344 -5.296875 1.964844 -4.917969 C 1.644531 -4.53125 1.488281 -3.929688 1.492188 -3.105469 Z M 1.492188 -3.105469 "/></symbol><symbol overflow="visible" id="glyph0-12"><path style="stroke:none;" d="M 0.5 -4.234375 C 0.496094 -5.246094 0.601563 -6.0625 0.8125 -6.6875 C 1.019531 -7.304688 1.328125 -7.785156 1.742188 -8.121094 C 2.148438 -8.457031 2.667969 -8.625 3.296875 -8.625 C 3.757813 -8.625 4.164063 -8.53125 4.511719 -8.347656 C 4.855469 -8.160156 5.140625 -7.890625 5.371094 -7.542969 C 5.59375 -7.191406 5.773438 -6.765625 5.90625 -6.265625 C 6.035156 -5.761719 6.097656 -5.085938 6.101563 -4.234375 C 6.097656 -3.226563 5.996094 -2.414063 5.789063 -1.796875 C 5.578125 -1.175781 5.265625 -0.695313 4.859375 -0.359375 C 4.445313 -0.0195313 3.925781 0.144531 3.296875 0.148438 C 2.464844 0.144531 1.816406 -0.148438 1.347656 -0.742188 C 0.78125 -1.457031 0.496094 -2.621094 0.5 -4.234375 Z M 1.582031 -4.234375 C 1.582031 -2.824219 1.746094 -1.886719 2.074219 -1.417969 C 2.402344 -0.949219 2.808594 -0.714844 3.296875 -0.71875 C 3.777344 -0.714844 4.183594 -0.949219 4.519531 -1.421875 C 4.847656 -1.886719 5.015625 -2.824219 5.015625 -4.234375 C 5.015625 -5.648438 4.847656 -6.589844 4.519531 -7.054688 C 4.183594 -7.515625 3.773438 -7.746094 3.289063 -7.75 C 2.800781 -7.746094 2.414063 -7.542969 2.125 -7.136719 C 1.761719 -6.613281 1.582031 -5.644531 1.582031 -4.234375 Z M 1.582031 -4.234375 "/></symbol><symbol overflow="visible" id="glyph0-13"><path style="stroke:none;" d="M 6.039063 -1.015625 L 6.039063 0 L 0.363281 0 C 0.355469 -0.253906 0.394531 -0.496094 0.484375 -0.734375 C 0.628906 -1.117188 0.859375 -1.5 1.179688 -1.875 C 1.492188 -2.25 1.953125 -2.683594 2.5625 -3.175781 C 3.492188 -3.941406 4.125 -4.546875 4.453125 -4.992188 C 4.78125 -5.4375 4.945313 -5.859375 4.945313 -6.265625 C 4.945313 -6.679688 4.792969 -7.03125 4.496094 -7.320313 C 4.191406 -7.601563 3.804688 -7.746094 3.328125 -7.75 C 2.820313 -7.746094 2.414063 -7.59375 2.109375 -7.292969 C 1.804688 -6.984375 1.648438 -6.5625 1.648438 -6.03125 L 0.5625 -6.140625 C 0.632813 -6.945313 0.910156 -7.558594 1.398438 -7.988281 C 1.878906 -8.410156 2.53125 -8.625 3.351563 -8.625 C 4.171875 -8.625 4.824219 -8.394531 5.308594 -7.9375 C 5.789063 -7.480469 6.027344 -6.914063 6.03125 -6.242188 C 6.027344 -5.894531 5.957031 -5.558594 5.820313 -5.226563 C 5.675781 -4.890625 5.441406 -4.539063 5.117188 -4.175781 C 4.789063 -3.804688 4.25 -3.300781 3.492188 -2.664063 C 2.859375 -2.128906 2.453125 -1.769531 2.273438 -1.582031 C 2.09375 -1.394531 1.945313 -1.203125 1.828125 -1.015625 Z M 6.039063 -1.015625 "/></symbol><symbol overflow="visible" id="glyph0-14"><path style="stroke:none;" d="M 3.878906 0 L 3.878906 -2.054688 L 0.152344 -2.054688 L 0.152344 -3.023438 L 4.070313 -8.589844 L 4.933594 -8.589844 L 4.933594 -3.023438 L 6.09375 -3.023438 L 6.09375 -2.054688 L 4.933594 -2.054688 L 4.933594 0 Z M 3.878906 -3.023438 L 3.878906 -6.898438 L 1.1875 -3.023438 Z M 3.878906 -3.023438 "/></symbol><symbol overflow="visible" id="glyph0-15"><path style="stroke:none;" d="M 5.96875 -6.484375 L 4.921875 -6.40625 C 4.828125 -6.8125 4.695313 -7.113281 4.523438 -7.304688 C 4.234375 -7.605469 3.882813 -7.757813 3.46875 -7.757813 C 3.132813 -7.757813 2.835938 -7.664063 2.585938 -7.476563 C 2.25 -7.234375 1.988281 -6.878906 1.796875 -6.414063 C 1.605469 -5.949219 1.507813 -5.289063 1.5 -4.429688 C 1.753906 -4.8125 2.0625 -5.097656 2.433594 -5.289063 C 2.796875 -5.472656 3.183594 -5.566406 3.585938 -5.570313 C 4.289063 -5.566406 4.886719 -5.308594 5.382813 -4.792969 C 5.875 -4.277344 6.121094 -3.609375 6.125 -2.789063 C 6.121094 -2.25 6.003906 -1.746094 5.773438 -1.285156 C 5.539063 -0.820313 5.222656 -0.46875 4.816406 -0.222656 C 4.410156 0.0234375 3.949219 0.144531 3.433594 0.148438 C 2.554688 0.144531 1.835938 -0.175781 1.285156 -0.820313 C 0.726563 -1.46875 0.449219 -2.535156 0.453125 -4.019531 C 0.449219 -5.675781 0.757813 -6.882813 1.371094 -7.640625 C 1.902344 -8.296875 2.621094 -8.625 3.53125 -8.625 C 4.207031 -8.625 4.761719 -8.433594 5.195313 -8.054688 C 5.625 -7.675781 5.882813 -7.152344 5.96875 -6.484375 Z M 1.664063 -2.78125 C 1.664063 -2.417969 1.738281 -2.070313 1.894531 -1.738281 C 2.042969 -1.40625 2.261719 -1.152344 2.542969 -0.980469 C 2.820313 -0.800781 3.109375 -0.714844 3.414063 -0.71875 C 3.859375 -0.714844 4.242188 -0.894531 4.566406 -1.257813 C 4.882813 -1.613281 5.042969 -2.101563 5.046875 -2.726563 C 5.042969 -3.316406 4.886719 -3.785156 4.570313 -4.128906 C 4.25 -4.46875 3.851563 -4.640625 3.375 -4.640625 C 2.898438 -4.640625 2.492188 -4.46875 2.160156 -4.128906 C 1.828125 -3.785156 1.664063 -3.335938 1.664063 -2.78125 Z M 1.664063 -2.78125 "/></symbol><symbol overflow="visible" id="glyph0-16"><path style="stroke:none;" d="M 2.121094 -4.65625 C 1.683594 -4.816406 1.359375 -5.046875 1.148438 -5.34375 C 0.9375 -5.640625 0.832031 -5.996094 0.832031 -6.410156 C 0.832031 -7.035156 1.054688 -7.558594 1.503906 -7.984375 C 1.953125 -8.410156 2.550781 -8.625 3.296875 -8.625 C 4.042969 -8.625 4.648438 -8.40625 5.109375 -7.972656 C 5.566406 -7.535156 5.792969 -7.003906 5.796875 -6.382813 C 5.792969 -5.976563 5.6875 -5.628906 5.480469 -5.339844 C 5.269531 -5.042969 4.953125 -4.816406 4.53125 -4.65625 C 5.054688 -4.480469 5.457031 -4.203125 5.734375 -3.824219 C 6.007813 -3.4375 6.144531 -2.980469 6.148438 -2.453125 C 6.144531 -1.714844 5.886719 -1.097656 5.367188 -0.601563 C 4.84375 -0.101563 4.160156 0.144531 3.316406 0.148438 C 2.46875 0.144531 1.785156 -0.101563 1.265625 -0.605469 C 0.742188 -1.105469 0.480469 -1.734375 0.484375 -2.484375 C 0.480469 -3.039063 0.621094 -3.503906 0.910156 -3.886719 C 1.191406 -4.261719 1.597656 -4.519531 2.121094 -4.65625 Z M 1.910156 -6.445313 C 1.910156 -6.039063 2.039063 -5.707031 2.300781 -5.449219 C 2.5625 -5.191406 2.902344 -5.0625 3.320313 -5.0625 C 3.722656 -5.0625 4.054688 -5.1875 4.320313 -5.445313 C 4.578125 -5.695313 4.710938 -6.011719 4.710938 -6.386719 C 4.710938 -6.773438 4.574219 -7.097656 4.308594 -7.363281 C 4.035156 -7.625 3.703125 -7.757813 3.3125 -7.757813 C 2.90625 -7.757813 2.574219 -7.628906 2.308594 -7.371094 C 2.042969 -7.113281 1.910156 -6.804688 1.910156 -6.445313 Z M 1.570313 -2.476563 C 1.570313 -2.175781 1.640625 -1.886719 1.785156 -1.605469 C 1.925781 -1.324219 2.136719 -1.105469 2.421875 -0.949219 C 2.699219 -0.792969 3.003906 -0.714844 3.328125 -0.71875 C 3.832031 -0.714844 4.246094 -0.878906 4.578125 -1.207031 C 4.902344 -1.53125 5.066406 -1.941406 5.070313 -2.445313 C 5.066406 -2.945313 4.898438 -3.367188 4.5625 -3.703125 C 4.222656 -4.035156 3.800781 -4.199219 3.292969 -4.203125 C 2.792969 -4.199219 2.378906 -4.035156 2.058594 -3.710938 C 1.730469 -3.378906 1.570313 -2.96875 1.570313 -2.476563 Z M 1.570313 -2.476563 "/></symbol><symbol overflow="visible" id="glyph0-17"><path style="stroke:none;" d="M 4.46875 0 L 3.414063 0 L 3.414063 -6.71875 C 3.160156 -6.476563 2.828125 -6.234375 2.414063 -5.996094 C 2 -5.75 1.628906 -5.570313 1.304688 -5.449219 L 1.304688 -6.46875 C 1.894531 -6.742188 2.410156 -7.078125 2.851563 -7.476563 C 3.292969 -7.871094 3.605469 -8.253906 3.789063 -8.625 L 4.46875 -8.625 Z M 4.46875 0 "/></symbol><symbol overflow="visible" id="glyph0-18"><path style="stroke:none;" d="M 1.089844 0 L 1.089844 -1.203125 L 2.289063 -1.203125 L 2.289063 0 Z M 1.089844 0 "/></symbol><symbol overflow="visible" id="glyph1-0"><path style="stroke:none;" d="M 0.75 0 L 0.75 -9.597656 L 5.25 -9.597656 L 5.25 0 Z M 1.5 -0.75 L 4.5 -0.75 L 4.5 -8.847656 L 1.5 -8.847656 Z M 1.5 -0.75 "/></symbol><symbol overflow="visible" id="glyph1-1"><path style="stroke:none;" d="M 3.5625 2.519531 L 2.804688 2.519531 C 2.488281 2.121094 2.203125 1.699219 1.953125 1.257813 C 1.695313 0.8125 1.476563 0.355469 1.292969 -0.121094 C 1.109375 -0.59375 0.96875 -1.082031 0.867188 -1.585938 C 0.765625 -2.082031 0.714844 -2.589844 0.71875 -3.105469 C 0.714844 -3.621094 0.765625 -4.128906 0.871094 -4.628906 C 0.96875 -5.128906 1.113281 -5.613281 1.300781 -6.085938 C 1.484375 -6.558594 1.703125 -7.015625 1.960938 -7.460938 C 2.214844 -7.898438 2.496094 -8.324219 2.804688 -8.734375 L 3.5625 -8.734375 C 3.285156 -8.277344 3.035156 -7.832031 2.820313 -7.394531 C 2.597656 -6.957031 2.414063 -6.507813 2.269531 -6.054688 C 2.117188 -5.597656 2.003906 -5.128906 1.929688 -4.648438 C 1.847656 -4.164063 1.808594 -3.65625 1.8125 -3.117188 C 1.808594 -2.617188 1.851563 -2.121094 1.9375 -1.628906 C 2.019531 -1.136719 2.136719 -0.652344 2.289063 -0.179688 C 2.441406 0.292969 2.625 0.753906 2.839844 1.207031 C 3.054688 1.660156 3.296875 2.097656 3.5625 2.519531 Z M 3.5625 2.519531 "/></symbol><symbol overflow="visible" id="glyph1-2"><path style="stroke:none;" d="M 3.273438 -3.105469 C 3.269531 -2.589844 3.21875 -2.082031 3.121094 -1.582031 C 3.015625 -1.082031 2.875 -0.597656 2.695313 -0.128906 C 2.511719 0.339844 2.289063 0.796875 2.035156 1.242188 C 1.777344 1.6875 1.496094 2.113281 1.1875 2.519531 L 0.433594 2.519531 C 0.707031 2.074219 0.953125 1.628906 1.171875 1.1875 C 1.390625 0.746094 1.574219 0.300781 1.722656 -0.15625 C 1.871094 -0.613281 1.984375 -1.085938 2.066406 -1.570313 C 2.144531 -2.054688 2.183594 -2.5625 2.1875 -3.09375 C 2.183594 -3.59375 2.140625 -4.089844 2.058594 -4.582031 C 1.972656 -5.074219 1.855469 -5.554688 1.703125 -6.03125 C 1.550781 -6.5 1.367188 -6.964844 1.152344 -7.421875 C 0.933594 -7.871094 0.695313 -8.308594 0.433594 -8.734375 L 1.1875 -8.734375 C 1.496094 -8.335938 1.78125 -7.914063 2.042969 -7.472656 C 2.296875 -7.027344 2.515625 -6.566406 2.703125 -6.089844 C 2.882813 -5.609375 3.023438 -5.121094 3.125 -4.621094 C 3.21875 -4.117188 3.269531 -3.613281 3.273438 -3.105469 Z M 3.273438 -3.105469 "/></symbol><symbol overflow="visible" id="glyph1-3"><path style="stroke:none;" d="M 6.34375 -3.925781 L 0.664063 -3.925781 L 0.664063 -4.910156 L 6.34375 -4.910156 Z M 6.34375 -1.3125 L 0.664063 -1.3125 L 0.664063 -2.296875 L 6.34375 -2.296875 Z M 6.34375 -1.3125 "/></symbol><symbol overflow="visible" id="glyph2-0"><path style="stroke:none;" d="M 0.875 0 L 0.875 -11.195313 L 6.125 -11.195313 L 6.125 0 Z M 1.75 -0.875 L 5.25 -0.875 L 5.25 -10.320313 L 1.75 -10.320313 Z M 1.75 -0.875 "/></symbol><symbol overflow="visible" id="glyph2-1"><path style="stroke:none;" d="M 3.671875 2.789063 L 0.949219 2.789063 L 0.949219 -10.019531 L 3.671875 -10.019531 L 3.671875 -9.003906 L 2.179688 -9.003906 L 2.179688 1.761719 L 3.671875 1.761719 Z M 3.671875 2.789063 "/></symbol><symbol overflow="visible" id="glyph2-2"><path style="stroke:none;" d="M 2.9375 2.789063 L 0.226563 2.789063 L 0.226563 1.761719 L 1.707031 1.761719 L 1.707031 -9.003906 L 0.226563 -9.003906 L 0.226563 -10.019531 L 2.9375 -10.019531 Z M 2.9375 2.789063 "/></symbol><symbol overflow="visible" id="glyph2-3"><path style="stroke:none;" d="M 4.15625 2.9375 L 3.273438 2.9375 C 2.90625 2.46875 2.574219 1.980469 2.277344 1.464844 C 1.976563 0.949219 1.71875 0.414063 1.507813 -0.140625 C 1.289063 -0.695313 1.125 -1.265625 1.011719 -1.851563 C 0.894531 -2.433594 0.835938 -3.023438 0.839844 -3.621094 C 0.835938 -4.226563 0.894531 -4.820313 1.015625 -5.402344 C 1.132813 -5.980469 1.300781 -6.546875 1.515625 -7.101563 C 1.730469 -7.652344 1.988281 -8.183594 2.285156 -8.703125 C 2.582031 -9.21875 2.910156 -9.714844 3.273438 -10.191406 L 4.15625 -10.191406 C 3.828125 -9.660156 3.539063 -9.140625 3.289063 -8.628906 C 3.03125 -8.113281 2.816406 -7.589844 2.644531 -7.0625 C 2.46875 -6.53125 2.339844 -5.984375 2.25 -5.421875 C 2.15625 -4.855469 2.109375 -4.261719 2.113281 -3.636719 C 2.109375 -3.050781 2.15625 -2.472656 2.257813 -1.898438 C 2.351563 -1.324219 2.492188 -0.757813 2.671875 -0.207031 C 2.847656 0.347656 3.058594 0.882813 3.3125 1.410156 C 3.5625 1.933594 3.84375 2.441406 4.15625 2.9375 Z M 4.15625 2.9375 "/></symbol><symbol overflow="visible" id="glyph2-4"><path style="stroke:none;" d="M 8.359375 -7.253906 L 6.816406 0 L 5.714844 0 L 5.941406 -1.066406 L 5.914063 -1.066406 C 5.765625 -0.910156 5.613281 -0.757813 5.449219 -0.609375 C 5.285156 -0.460938 5.113281 -0.328125 4.933594 -0.214844 C 4.75 -0.09375 4.554688 -0.00390625 4.355469 0.0664063 C 4.152344 0.132813 3.941406 0.167969 3.71875 0.171875 C 3.570313 0.167969 3.425781 0.148438 3.285156 0.113281 C 3.140625 0.0703125 3.003906 0.0195313 2.878906 -0.0546875 C 2.75 -0.125 2.636719 -0.21875 2.539063 -0.328125 C 2.4375 -0.4375 2.359375 -0.558594 2.304688 -0.695313 L 1.566406 2.789063 L 0.335938 2.789063 L 2.46875 -7.253906 L 3.699219 -7.253906 L 2.773438 -2.925781 C 2.738281 -2.777344 2.714844 -2.628906 2.695313 -2.480469 C 2.671875 -2.324219 2.660156 -2.175781 2.664063 -2.03125 C 2.660156 -1.628906 2.757813 -1.339844 2.960938 -1.160156 C 3.15625 -0.980469 3.449219 -0.890625 3.839844 -0.894531 C 4.164063 -0.890625 4.460938 -0.949219 4.730469 -1.074219 C 4.996094 -1.191406 5.234375 -1.355469 5.4375 -1.5625 C 5.640625 -1.761719 5.808594 -1.996094 5.945313 -2.269531 C 6.082031 -2.535156 6.183594 -2.820313 6.246094 -3.125 L 7.128906 -7.253906 Z M 8.359375 -7.253906 "/></symbol><symbol overflow="visible" id="glyph2-5"><path style="stroke:none;" d="M 3.820313 -3.621094 C 3.820313 -3.019531 3.757813 -2.425781 3.640625 -1.847656 C 3.519531 -1.261719 3.355469 -0.695313 3.144531 -0.148438 C 2.929688 0.402344 2.671875 0.929688 2.375 1.449219 C 2.070313 1.964844 1.742188 2.460938 1.386719 2.9375 L 0.503906 2.9375 C 0.824219 2.414063 1.109375 1.898438 1.367188 1.386719 C 1.617188 0.867188 1.832031 0.347656 2.007813 -0.183594 C 2.179688 -0.714844 2.3125 -1.265625 2.410156 -1.832031 C 2.5 -2.394531 2.546875 -2.988281 2.550781 -3.609375 C 2.546875 -4.191406 2.5 -4.769531 2.402344 -5.34375 C 2.300781 -5.917969 2.160156 -6.480469 1.988281 -7.035156 C 1.808594 -7.585938 1.59375 -8.128906 1.34375 -8.660156 C 1.085938 -9.1875 0.808594 -9.695313 0.503906 -10.191406 L 1.386719 -10.191406 C 1.75 -9.722656 2.082031 -9.234375 2.382813 -8.71875 C 2.683594 -8.199219 2.941406 -7.660156 3.152344 -7.105469 C 3.363281 -6.546875 3.527344 -5.976563 3.644531 -5.390625 C 3.761719 -4.804688 3.820313 -4.214844 3.820313 -3.621094 Z M 3.820313 -3.621094 "/></symbol><symbol overflow="visible" id="glyph3-0"><path style="stroke:none;" d="M 1.75 0 L 1.75 -8.75 L 8.75 -8.75 L 8.75 0 Z M 1.96875 -0.21875 L 8.53125 -0.21875 L 8.53125 -8.53125 L 1.96875 -8.53125 Z M 1.96875 -0.21875 "/></symbol><symbol overflow="visible" id="glyph3-1"><path style="stroke:none;" d="M 3.945313 0 L 0.0625 -10.019531 L 1.496094 -10.019531 L 4.101563 -2.742188 C 4.308594 -2.15625 4.484375 -1.609375 4.628906 -1.101563 C 4.78125 -1.648438 4.960938 -2.195313 5.167969 -2.742188 L 7.875 -10.019531 L 9.226563 -10.019531 L 5.304688 0 Z M 3.945313 0 "/></symbol><symbol overflow="visible" id="glyph3-2"><path style="stroke:none;" d="M 5.660156 -0.894531 C 5.203125 -0.503906 4.761719 -0.230469 4.34375 -0.0742188 C 3.917969 0.0859375 3.46875 0.164063 2.988281 0.164063 C 2.1875 0.164063 1.570313 -0.0273438 1.144531 -0.417969 C 0.714844 -0.804688 0.503906 -1.304688 0.503906 -1.914063 C 0.503906 -2.265625 0.582031 -2.589844 0.746094 -2.886719 C 0.90625 -3.179688 1.121094 -3.414063 1.382813 -3.59375 C 1.644531 -3.769531 1.9375 -3.90625 2.269531 -4 C 2.507813 -4.058594 2.875 -4.121094 3.363281 -4.183594 C 4.355469 -4.300781 5.085938 -4.441406 5.558594 -4.605469 C 5.558594 -4.773438 5.558594 -4.878906 5.5625 -4.929688 C 5.558594 -5.425781 5.445313 -5.78125 5.214844 -5.988281 C 4.898438 -6.265625 4.429688 -6.402344 3.8125 -6.40625 C 3.230469 -6.402344 2.804688 -6.300781 2.53125 -6.101563 C 2.253906 -5.894531 2.050781 -5.535156 1.921875 -5.023438 L 0.71875 -5.1875 C 0.824219 -5.699219 1.003906 -6.117188 1.257813 -6.433594 C 1.503906 -6.75 1.867188 -6.992188 2.34375 -7.164063 C 2.816406 -7.332031 3.363281 -7.417969 3.992188 -7.421875 C 4.609375 -7.417969 5.113281 -7.34375 5.5 -7.203125 C 5.886719 -7.054688 6.171875 -6.871094 6.355469 -6.652344 C 6.535156 -6.429688 6.664063 -6.152344 6.738281 -5.816406 C 6.777344 -5.605469 6.796875 -5.226563 6.800781 -4.683594 L 6.800781 -3.042969 C 6.796875 -1.894531 6.824219 -1.171875 6.878906 -0.871094 C 6.929688 -0.566406 7.03125 -0.277344 7.191406 0 L 5.90625 0 C 5.777344 -0.253906 5.695313 -0.550781 5.660156 -0.894531 Z M 5.558594 -3.644531 C 5.109375 -3.460938 4.4375 -3.304688 3.546875 -3.179688 C 3.039063 -3.105469 2.683594 -3.023438 2.472656 -2.933594 C 2.261719 -2.839844 2.097656 -2.707031 1.988281 -2.53125 C 1.871094 -2.355469 1.816406 -2.160156 1.816406 -1.949219 C 1.816406 -1.617188 1.9375 -1.34375 2.1875 -1.128906 C 2.433594 -0.90625 2.800781 -0.796875 3.28125 -0.800781 C 3.753906 -0.796875 4.171875 -0.898438 4.542969 -1.109375 C 4.910156 -1.3125 5.183594 -1.597656 5.359375 -1.960938 C 5.488281 -2.238281 5.554688 -2.648438 5.558594 -3.191406 Z M 5.558594 -3.644531 "/></symbol><symbol overflow="visible" id="glyph3-3"><path style="stroke:none;" d="M 0.921875 0 L 0.921875 -7.257813 L 2.03125 -7.257813 L 2.03125 -6.226563 C 2.558594 -7.019531 3.328125 -7.417969 4.339844 -7.421875 C 4.773438 -7.417969 5.175781 -7.339844 5.546875 -7.1875 C 5.910156 -7.027344 6.183594 -6.820313 6.371094 -6.570313 C 6.550781 -6.3125 6.679688 -6.011719 6.753906 -5.660156 C 6.796875 -5.429688 6.820313 -5.03125 6.820313 -4.464844 L 6.820313 0 L 5.589844 0 L 5.589844 -4.414063 C 5.589844 -4.914063 5.539063 -5.289063 5.445313 -5.539063 C 5.347656 -5.785156 5.179688 -5.984375 4.9375 -6.132813 C 4.691406 -6.277344 4.40625 -6.351563 4.082031 -6.355469 C 3.554688 -6.351563 3.101563 -6.183594 2.722656 -5.855469 C 2.339844 -5.519531 2.148438 -4.890625 2.152344 -3.964844 L 2.152344 0 Z M 0.921875 0 "/></symbol><symbol overflow="visible" id="glyph3-4"><path style="stroke:none;" d="M 5.660156 -2.660156 L 6.871094 -2.5 C 6.734375 -1.664063 6.394531 -1.011719 5.855469 -0.542969 C 5.308594 -0.0703125 4.640625 0.164063 3.847656 0.164063 C 2.851563 0.164063 2.054688 -0.160156 1.453125 -0.808594 C 0.847656 -1.457031 0.542969 -2.386719 0.546875 -3.601563 C 0.542969 -4.382813 0.671875 -5.070313 0.933594 -5.660156 C 1.191406 -6.246094 1.589844 -6.683594 2.121094 -6.980469 C 2.652344 -7.269531 3.230469 -7.417969 3.855469 -7.421875 C 4.644531 -7.417969 5.289063 -7.21875 5.789063 -6.824219 C 6.289063 -6.421875 6.609375 -5.855469 6.753906 -5.125 L 5.558594 -4.941406 C 5.441406 -5.425781 5.238281 -5.792969 4.953125 -6.039063 C 4.660156 -6.285156 4.3125 -6.410156 3.902344 -6.410156 C 3.28125 -6.410156 2.777344 -6.1875 2.390625 -5.742188 C 2.003906 -5.296875 1.808594 -4.59375 1.8125 -3.636719 C 1.808594 -2.65625 1.996094 -1.945313 2.371094 -1.507813 C 2.742188 -1.0625 3.230469 -0.84375 3.835938 -0.847656 C 4.316406 -0.84375 4.71875 -0.992188 5.042969 -1.289063 C 5.367188 -1.585938 5.574219 -2.042969 5.660156 -2.660156 Z M 5.660156 -2.660156 "/></symbol><symbol overflow="visible" id="glyph3-5"><path style="stroke:none;" d="M 0.464844 -3.628906 C 0.460938 -4.96875 0.835938 -5.964844 1.585938 -6.617188 C 2.207031 -7.148438 2.96875 -7.417969 3.867188 -7.421875 C 4.867188 -7.417969 5.683594 -7.089844 6.316406 -6.441406 C 6.949219 -5.785156 7.265625 -4.882813 7.265625 -3.730469 C 7.265625 -2.796875 7.125 -2.0625 6.84375 -1.527344 C 6.5625 -0.988281 6.152344 -0.570313 5.621094 -0.277344 C 5.082031 0.0195313 4.5 0.164063 3.867188 0.164063 C 2.851563 0.164063 2.027344 -0.160156 1.402344 -0.8125 C 0.773438 -1.460938 0.460938 -2.398438 0.464844 -3.628906 Z M 1.730469 -3.628906 C 1.726563 -2.695313 1.929688 -2 2.335938 -1.539063 C 2.738281 -1.074219 3.25 -0.84375 3.867188 -0.847656 C 4.476563 -0.84375 4.984375 -1.074219 5.390625 -1.542969 C 5.796875 -2.003906 6 -2.714844 6 -3.671875 C 6 -4.566406 5.792969 -5.246094 5.386719 -5.710938 C 4.976563 -6.171875 4.472656 -6.402344 3.867188 -6.40625 C 3.25 -6.402344 2.738281 -6.171875 2.335938 -5.714844 C 1.929688 -5.25 1.726563 -4.554688 1.730469 -3.628906 Z M 1.730469 -3.628906 "/></symbol><symbol overflow="visible" id="glyph3-6"><path style="stroke:none;" d="M 0.921875 0 L 0.921875 -7.257813 L 2.023438 -7.257813 L 2.023438 -6.242188 C 2.246094 -6.59375 2.550781 -6.878906 2.929688 -7.097656 C 3.308594 -7.308594 3.738281 -7.417969 4.222656 -7.421875 C 4.757813 -7.417969 5.199219 -7.304688 5.546875 -7.085938 C 5.886719 -6.859375 6.128906 -6.550781 6.273438 -6.152344 C 6.847656 -6.996094 7.59375 -7.417969 8.515625 -7.421875 C 9.234375 -7.417969 9.789063 -7.21875 10.175781 -6.824219 C 10.5625 -6.421875 10.757813 -5.808594 10.757813 -4.984375 L 10.757813 0 L 9.535156 0 L 9.535156 -4.574219 C 9.53125 -5.0625 9.492188 -5.417969 9.414063 -5.636719 C 9.332031 -5.851563 9.1875 -6.023438 8.980469 -6.15625 C 8.769531 -6.285156 8.523438 -6.351563 8.242188 -6.355469 C 7.730469 -6.351563 7.304688 -6.183594 6.96875 -5.847656 C 6.628906 -5.507813 6.460938 -4.964844 6.464844 -4.21875 L 6.464844 0 L 5.234375 0 L 5.234375 -4.714844 C 5.230469 -5.257813 5.132813 -5.667969 4.933594 -5.945313 C 4.730469 -6.214844 4.402344 -6.351563 3.949219 -6.355469 C 3.601563 -6.351563 3.28125 -6.261719 2.988281 -6.082031 C 2.695313 -5.898438 2.480469 -5.628906 2.351563 -5.28125 C 2.214844 -4.929688 2.148438 -4.425781 2.152344 -3.765625 L 2.152344 0 Z M 0.921875 0 "/></symbol><symbol overflow="visible" id="glyph3-7"><path style="stroke:none;" d="M 0.867188 2.796875 L 0.730469 1.640625 C 0.996094 1.710938 1.230469 1.746094 1.433594 1.75 C 1.703125 1.746094 1.921875 1.699219 2.089844 1.613281 C 2.25 1.519531 2.386719 1.394531 2.496094 1.230469 C 2.570313 1.105469 2.695313 0.796875 2.871094 0.3125 C 2.894531 0.242188 2.929688 0.144531 2.980469 0.0117188 L 0.226563 -7.257813 L 1.550781 -7.257813 L 3.0625 -3.054688 C 3.253906 -2.515625 3.429688 -1.957031 3.589844 -1.375 C 3.726563 -1.9375 3.894531 -2.488281 4.09375 -3.027344 L 5.644531 -7.257813 L 6.875 -7.257813 L 4.113281 0.121094 C 3.816406 0.917969 3.585938 1.46875 3.425781 1.769531 C 3.203125 2.175781 2.953125 2.472656 2.671875 2.660156 C 2.390625 2.847656 2.050781 2.941406 1.660156 2.945313 C 1.417969 2.941406 1.15625 2.890625 0.867188 2.796875 Z M 0.867188 2.796875 "/></symbol><symbol overflow="visible" id="glyph3-8"><path style="stroke:none;" d="M 0.929688 -8.605469 L 0.929688 -10.019531 L 2.160156 -10.019531 L 2.160156 -8.605469 Z M 0.929688 0 L 0.929688 -7.257813 L 2.160156 -7.257813 L 2.160156 0 Z M 0.929688 0 "/></symbol><symbol overflow="visible" id="glyph3-9"><path style="stroke:none;" d="M 1.039063 0 L 1.039063 -10.019531 L 3.035156 -10.019531 L 5.40625 -2.925781 C 5.621094 -2.261719 5.78125 -1.769531 5.886719 -1.441406 C 5.996094 -1.804688 6.171875 -2.339844 6.417969 -3.046875 L 8.816406 -10.019531 L 10.601563 -10.019531 L 10.601563 0 L 9.324219 0 L 9.324219 -8.386719 L 6.410156 0 L 5.214844 0 L 2.316406 -8.53125 L 2.316406 0 Z M 1.039063 0 "/></symbol><symbol overflow="visible" id="glyph4-0"><path style="stroke:none;" d="M 0 -1.75 L -8.75 -1.75 L -8.75 -8.75 L 0 -8.75 Z M -0.21875 -1.96875 L -0.21875 -8.53125 L -8.53125 -8.53125 L -8.53125 -1.96875 Z M -0.21875 -1.96875 "/></symbol><symbol overflow="visible" id="glyph4-1"><path style="stroke:none;" d="M 0 -1.148438 L -10.019531 -1.148438 L -10.019531 -7.910156 L -8.839844 -7.910156 L -8.839844 -2.472656 L -5.734375 -2.472656 L -5.734375 -7.175781 L -4.550781 -7.175781 L -4.550781 -2.472656 L 0 -2.472656 Z M 0 -1.148438 "/></symbol><symbol overflow="visible" id="glyph4-2"><path style="stroke:none;" d="M 0 -0.910156 L -7.257813 -0.910156 L -7.257813 -2.015625 L -6.160156 -2.015625 C -6.667969 -2.296875 -7.007813 -2.554688 -7.175781 -2.796875 C -7.335938 -3.03125 -7.417969 -3.296875 -7.421875 -3.589844 C -7.417969 -4 -7.285156 -4.421875 -7.027344 -4.851563 L -5.886719 -4.429688 C -6.0625 -4.125 -6.152344 -3.824219 -6.152344 -3.527344 C -6.152344 -3.257813 -6.070313 -3.015625 -5.910156 -2.800781 C -5.746094 -2.585938 -5.519531 -2.433594 -5.234375 -2.34375 C -4.792969 -2.207031 -4.316406 -2.136719 -3.800781 -2.140625 L 0 -2.140625 Z M 0 -0.910156 "/></symbol><symbol overflow="visible" id="glyph4-3"><path style="stroke:none;" d="M -0.894531 -5.660156 C -0.503906 -5.203125 -0.230469 -4.761719 -0.0742188 -4.34375 C 0.0859375 -3.917969 0.164063 -3.46875 0.164063 -2.988281 C 0.164063 -2.1875 -0.0273438 -1.570313 -0.417969 -1.144531 C -0.804688 -0.714844 -1.304688 -0.503906 -1.914063 -0.503906 C -2.265625 -0.503906 -2.589844 -0.582031 -2.886719 -0.746094 C -3.179688 -0.90625 -3.414063 -1.121094 -3.59375 -1.382813 C -3.769531 -1.644531 -3.90625 -1.9375 -4 -2.269531 C -4.058594 -2.507813 -4.121094 -2.875 -4.183594 -3.363281 C -4.300781 -4.355469 -4.441406 -5.085938 -4.605469 -5.558594 C -4.773438 -5.558594 -4.878906 -5.558594 -4.929688 -5.5625 C -5.425781 -5.558594 -5.78125 -5.445313 -5.988281 -5.214844 C -6.265625 -4.898438 -6.402344 -4.429688 -6.40625 -3.8125 C -6.402344 -3.230469 -6.300781 -2.804688 -6.101563 -2.53125 C -5.894531 -2.253906 -5.535156 -2.050781 -5.023438 -1.921875 L -5.1875 -0.71875 C -5.699219 -0.824219 -6.117188 -1.003906 -6.433594 -1.257813 C -6.75 -1.503906 -6.992188 -1.867188 -7.164063 -2.34375 C -7.332031 -2.816406 -7.417969 -3.363281 -7.421875 -3.992188 C -7.417969 -4.609375 -7.34375 -5.113281 -7.203125 -5.5 C -7.054688 -5.886719 -6.871094 -6.171875 -6.652344 -6.355469 C -6.429688 -6.535156 -6.152344 -6.664063 -5.816406 -6.738281 C -5.605469 -6.777344 -5.226563 -6.796875 -4.683594 -6.800781 L -3.042969 -6.800781 C -1.894531 -6.796875 -1.171875 -6.824219 -0.871094 -6.878906 C -0.566406 -6.929688 -0.277344 -7.03125 0 -7.191406 L 0 -5.90625 C -0.253906 -5.777344 -0.550781 -5.695313 -0.894531 -5.660156 Z M -3.644531 -5.558594 C -3.460938 -5.109375 -3.304688 -4.4375 -3.179688 -3.546875 C -3.105469 -3.039063 -3.023438 -2.683594 -2.933594 -2.472656 C -2.839844 -2.261719 -2.707031 -2.097656 -2.53125 -1.988281 C -2.355469 -1.871094 -2.160156 -1.816406 -1.949219 -1.816406 C -1.617188 -1.816406 -1.34375 -1.9375 -1.128906 -2.1875 C -0.90625 -2.433594 -0.796875 -2.800781 -0.800781 -3.28125 C -0.796875 -3.753906 -0.898438 -4.171875 -1.109375 -4.542969 C -1.3125 -4.910156 -1.597656 -5.183594 -1.960938 -5.359375 C -2.238281 -5.488281 -2.648438 -5.554688 -3.191406 -5.558594 Z M -3.644531 -5.558594 "/></symbol><symbol overflow="visible" id="glyph4-4"><path style="stroke:none;" d="M -2.660156 -5.660156 L -2.5 -6.871094 C -1.664063 -6.734375 -1.011719 -6.394531 -0.542969 -5.855469 C -0.0703125 -5.308594 0.164063 -4.640625 0.164063 -3.847656 C 0.164063 -2.851563 -0.160156 -2.054688 -0.808594 -1.453125 C -1.457031 -0.847656 -2.386719 -0.542969 -3.601563 -0.546875 C -4.382813 -0.542969 -5.070313 -0.671875 -5.660156 -0.933594 C -6.246094 -1.191406 -6.683594 -1.589844 -6.980469 -2.121094 C -7.269531 -2.652344 -7.417969 -3.230469 -7.421875 -3.855469 C -7.417969 -4.644531 -7.21875 -5.289063 -6.824219 -5.789063 C -6.421875 -6.289063 -5.855469 -6.609375 -5.125 -6.753906 L -4.941406 -5.558594 C -5.425781 -5.441406 -5.792969 -5.238281 -6.039063 -4.953125 C -6.285156 -4.660156 -6.410156 -4.3125 -6.410156 -3.902344 C -6.410156 -3.28125 -6.1875 -2.777344 -5.742188 -2.390625 C -5.296875 -2.003906 -4.59375 -1.808594 -3.636719 -1.8125 C -2.65625 -1.808594 -1.945313 -1.996094 -1.507813 -2.371094 C -1.0625 -2.742188 -0.84375 -3.230469 -0.847656 -3.835938 C -0.84375 -4.316406 -0.992188 -4.71875 -1.289063 -5.042969 C -1.585938 -5.367188 -2.042969 -5.574219 -2.660156 -5.660156 Z M -2.660156 -5.660156 "/></symbol><symbol overflow="visible" id="glyph4-5"><path style="stroke:none;" d="M -1.101563 -3.609375 L -0.0117188 -3.785156 C 0.0585938 -3.4375 0.09375 -3.125 0.09375 -2.855469 C 0.09375 -2.40625 0.0234375 -2.0625 -0.117188 -1.816406 C -0.257813 -1.570313 -0.441406 -1.394531 -0.671875 -1.296875 C -0.902344 -1.195313 -1.386719 -1.148438 -2.125 -1.148438 L -6.300781 -1.148438 L -6.300781 -0.246094 L -7.257813 -0.246094 L -7.257813 -1.148438 L -9.058594 -1.148438 L -9.796875 -2.371094 L -7.257813 -2.371094 L -7.257813 -3.609375 L -6.300781 -3.609375 L -6.300781 -2.371094 L -2.058594 -2.371094 C -1.703125 -2.367188 -1.476563 -2.386719 -1.378906 -2.433594 C -1.277344 -2.472656 -1.199219 -2.546875 -1.140625 -2.648438 C -1.078125 -2.746094 -1.046875 -2.886719 -1.050781 -3.070313 C -1.046875 -3.203125 -1.066406 -3.382813 -1.101563 -3.609375 Z M -1.101563 -3.609375 "/></symbol><symbol overflow="visible" id="glyph4-6"><path style="stroke:none;" d="M -8.605469 -0.929688 L -10.019531 -0.929688 L -10.019531 -2.160156 L -8.605469 -2.160156 Z M 0 -0.929688 L -7.257813 -0.929688 L -7.257813 -2.160156 L 0 -2.160156 Z M 0 -0.929688 "/></symbol><symbol overflow="visible" id="glyph4-7"><path style="stroke:none;" d="M -3.628906 -0.464844 C -4.96875 -0.460938 -5.964844 -0.835938 -6.617188 -1.585938 C -7.148438 -2.207031 -7.417969 -2.96875 -7.421875 -3.867188 C -7.417969 -4.867188 -7.089844 -5.683594 -6.441406 -6.316406 C -5.785156 -6.949219 -4.882813 -7.265625 -3.730469 -7.265625 C -2.796875 -7.265625 -2.0625 -7.125 -1.527344 -6.84375 C -0.988281 -6.5625 -0.570313 -6.152344 -0.277344 -5.621094 C 0.0195313 -5.082031 0.164063 -4.5 0.164063 -3.867188 C 0.164063 -2.851563 -0.160156 -2.027344 -0.8125 -1.402344 C -1.460938 -0.773438 -2.398438 -0.460938 -3.628906 -0.464844 Z M -3.628906 -1.730469 C -2.695313 -1.726563 -2 -1.929688 -1.539063 -2.335938 C -1.074219 -2.738281 -0.84375 -3.25 -0.847656 -3.867188 C -0.84375 -4.476563 -1.074219 -4.984375 -1.542969 -5.390625 C -2.003906 -5.796875 -2.714844 -6 -3.671875 -6 C -4.566406 -6 -5.246094 -5.792969 -5.710938 -5.386719 C -6.171875 -4.976563 -6.402344 -4.472656 -6.40625 -3.867188 C -6.402344 -3.25 -6.171875 -2.738281 -5.714844 -2.335938 C -5.25 -1.929688 -4.554688 -1.726563 -3.628906 -1.730469 Z M -3.628906 -1.730469 "/></symbol><symbol overflow="visible" id="glyph4-8"><path style="stroke:none;" d="M 0 -0.921875 L -7.257813 -0.921875 L -7.257813 -2.03125 L -6.226563 -2.03125 C -7.019531 -2.558594 -7.417969 -3.328125 -7.421875 -4.339844 C -7.417969 -4.773438 -7.339844 -5.175781 -7.1875 -5.546875 C -7.027344 -5.910156 -6.820313 -6.183594 -6.570313 -6.371094 C -6.3125 -6.550781 -6.011719 -6.679688 -5.660156 -6.753906 C -5.429688 -6.796875 -5.03125 -6.820313 -4.464844 -6.820313 L 0 -6.820313 L 0 -5.589844 L -4.414063 -5.589844 C -4.914063 -5.589844 -5.289063 -5.539063 -5.539063 -5.445313 C -5.785156 -5.347656 -5.984375 -5.179688 -6.132813 -4.9375 C -6.277344 -4.691406 -6.351563 -4.40625 -6.355469 -4.082031 C -6.351563 -3.554688 -6.183594 -3.101563 -5.855469 -2.722656 C -5.519531 -2.339844 -4.890625 -2.148438 -3.964844 -2.152344 L 0 -2.152344 Z M 0 -0.921875 "/></symbol><symbol overflow="visible" id="glyph4-9"><path style="stroke:none;" d="M 0 -1.214844 L -6.300781 -1.214844 L -6.300781 -0.128906 L -7.257813 -0.128906 L -7.257813 -1.214844 L -8.03125 -1.214844 C -8.515625 -1.210938 -8.878906 -1.257813 -9.117188 -1.347656 C -9.4375 -1.464844 -9.695313 -1.671875 -9.894531 -1.96875 C -10.089844 -2.265625 -10.1875 -2.683594 -10.191406 -3.226563 C -10.1875 -3.570313 -10.148438 -3.953125 -10.070313 -4.375 L -8.996094 -4.191406 C -9.035156 -3.933594 -9.058594 -3.691406 -9.0625 -3.464844 C -9.058594 -3.089844 -8.980469 -2.828125 -8.824219 -2.671875 C -8.664063 -2.515625 -8.363281 -2.4375 -7.929688 -2.441406 L -7.257813 -2.441406 L -7.257813 -3.855469 L -6.300781 -3.855469 L -6.300781 -2.441406 L 0 -2.441406 Z M 0 -1.214844 "/></symbol><symbol overflow="visible" id="glyph4-10"><path style="stroke:none;" d="M 0 -0.894531 L -10.019531 -0.894531 L -10.019531 -2.125 L 0 -2.125 Z M 0 -0.894531 "/></symbol><symbol overflow="visible" id="glyph4-11"><path style="stroke:none;" d="M 0 -5.632813 L -0.914063 -5.632813 C -0.195313 -5.167969 0.164063 -4.492188 0.164063 -3.601563 C 0.164063 -3.019531 0.0078125 -2.488281 -0.3125 -2.003906 C -0.628906 -1.519531 -1.074219 -1.140625 -1.648438 -0.875 C -2.21875 -0.605469 -2.878906 -0.472656 -3.621094 -0.476563 C -4.347656 -0.472656 -5.003906 -0.59375 -5.59375 -0.839844 C -6.183594 -1.078125 -6.636719 -1.441406 -6.949219 -1.925781 C -7.261719 -2.40625 -7.417969 -2.945313 -7.421875 -3.546875 C -7.417969 -3.980469 -7.324219 -4.371094 -7.144531 -4.714844 C -6.957031 -5.054688 -6.71875 -5.332031 -6.425781 -5.550781 L -10.019531 -5.550781 L -10.019531 -6.773438 L 0 -6.773438 Z M -3.621094 -1.742188 C -2.691406 -1.738281 -1.996094 -1.933594 -1.535156 -2.328125 C -1.074219 -2.71875 -0.84375 -3.183594 -0.847656 -3.71875 C -0.84375 -4.253906 -1.0625 -4.710938 -1.507813 -5.085938 C -1.945313 -5.460938 -2.617188 -5.648438 -3.519531 -5.652344 C -4.511719 -5.648438 -5.242188 -5.457031 -5.707031 -5.078125 C -6.171875 -4.691406 -6.402344 -4.21875 -6.40625 -3.664063 C -6.402344 -3.113281 -6.179688 -2.65625 -5.734375 -2.292969 C -5.285156 -1.921875 -4.582031 -1.738281 -3.621094 -1.742188 Z M -3.621094 -1.742188 "/></symbol><symbol overflow="visible" id="glyph4-12"><path style="stroke:none;" d="M -2.335938 -5.890625 L -2.179688 -7.164063 C -1.4375 -6.960938 -0.859375 -6.589844 -0.449219 -6.046875 C -0.0390625 -5.503906 0.164063 -4.8125 0.164063 -3.972656 C 0.164063 -2.910156 -0.160156 -2.066406 -0.816406 -1.445313 C -1.464844 -0.820313 -2.382813 -0.507813 -3.566406 -0.511719 C -4.785156 -0.507813 -5.734375 -0.824219 -6.410156 -1.453125 C -7.082031 -2.082031 -7.417969 -2.898438 -7.421875 -3.902344 C -7.417969 -4.871094 -7.085938 -5.664063 -6.429688 -6.28125 C -5.765625 -6.894531 -4.839844 -7.199219 -3.644531 -7.203125 C -3.570313 -7.199219 -3.460938 -7.199219 -3.316406 -7.199219 L -3.316406 -1.785156 C -2.515625 -1.828125 -1.902344 -2.054688 -1.480469 -2.460938 C -1.054688 -2.867188 -0.84375 -3.371094 -0.847656 -3.976563 C -0.84375 -4.425781 -0.960938 -4.8125 -1.203125 -5.132813 C -1.4375 -5.453125 -1.816406 -5.703125 -2.335938 -5.890625 Z M -4.328125 -1.851563 L -4.328125 -5.90625 C -4.933594 -5.851563 -5.390625 -5.695313 -5.699219 -5.441406 C -6.171875 -5.046875 -6.410156 -4.539063 -6.410156 -3.917969 C -6.410156 -3.351563 -6.21875 -2.875 -5.84375 -2.492188 C -5.460938 -2.101563 -4.957031 -1.890625 -4.328125 -1.851563 Z M -4.328125 -1.851563 "/></symbol></g><clipPath id="clip1">  <path d="M 56 64 L 539 64 L 539 363.601563 L 56 363.601563 Z M 56 64 "/></clipPath><clipPath id="clip2">  <path d="M 60.238281 328.320313 L 69.359375 328.320313 L 69.359375 337.441406 L 60.238281 337.441406 Z M 60.238281 328.320313 "/></clipPath><clipPath id="clip3">  <path d="M 60.71875 326 L 69.839844 326 L 69.839844 334.800781 L 60.71875 334.800781 Z M 60.71875 326 "/></clipPath><clipPath id="clip4">  <path d="M 65 300.480469 L 73.921875 300.480469 L 73.921875 309.601563 L 65 309.601563 Z M 65 300.480469 "/></clipPath><clipPath id="clip5">  <path d="M 107 198.480469 L 115.921875 198.480469 L 115.921875 207.601563 L 107 207.601563 Z M 107 198.480469 "/></clipPath><clipPath id="clip6">  <path d="M 127.679688 186.238281 L 136.800781 186.238281 L 136.800781 195.359375 L 127.679688 195.359375 Z M 127.679688 186.238281 "/></clipPath><clipPath id="clip7">  <path d="M 143.039063 172.320313 L 152 172.320313 L 152 181.441406 L 143.039063 181.441406 Z M 143.039063 172.320313 "/></clipPath><clipPath id="clip8">  <path d="M 153.359375 173 L 162.480469 173 L 162.480469 181.921875 L 153.359375 181.921875 Z M 153.359375 173 "/></clipPath><clipPath id="clip9">  <path d="M 176.398438 165 L 185.519531 165 L 185.519531 174 L 176.398438 174 Z M 176.398438 165 "/></clipPath><clipPath id="clip10">  <path d="M 207.121094 152.398438 L 216.238281 152.398438 L 216.238281 161.519531 L 207.121094 161.519531 Z M 207.121094 152.398438 "/></clipPath><clipPath id="clip11">  <path d="M 322 134 L 330.960938 134 L 330.960938 142.800781 L 322 142.800781 Z M 322 134 "/></clipPath><clipPath id="clip12">  <path d="M 525.601563 133.679688 L 534.71875 133.679688 L 534.71875 142.800781 L 525.601563 142.800781 Z M 525.601563 133.679688 "/></clipPath><clipPath id="clip13">  <path d="M 60.238281 355.679688 L 69.359375 355.679688 L 69.359375 363.601563 L 60.238281 363.601563 Z M 60.238281 355.679688 "/></clipPath><clipPath id="clip14">  <path d="M 60.71875 357 L 69.839844 357 L 69.839844 363.601563 L 60.71875 363.601563 Z M 60.71875 357 "/></clipPath><clipPath id="clip15">  <path d="M 60.71875 356.878906 L 69.839844 356.878906 L 69.839844 363.601563 L 60.71875 363.601563 Z M 60.71875 356.878906 "/></clipPath><clipPath id="clip16">  <path d="M 65 342 L 73.921875 342 L 73.921875 350.878906 L 65 350.878906 Z M 65 342 "/></clipPath><clipPath id="clip17">  <path d="M 64.800781 341.761719 L 73.921875 341.761719 L 73.921875 350.878906 L 64.800781 350.878906 Z M 64.800781 341.761719 "/></clipPath><clipPath id="clip18">  <path d="M 107 228 L 115.921875 228 L 115.921875 236.878906 L 107 236.878906 Z M 107 228 "/></clipPath><clipPath id="clip19">  <path d="M 106.800781 227.761719 L 115.921875 227.761719 L 115.921875 236.878906 L 106.800781 236.878906 Z M 106.800781 227.761719 "/></clipPath><clipPath id="clip20">  <path d="M 127.679688 205 L 136.800781 205 L 136.800781 214 L 127.679688 214 Z M 127.679688 205 "/></clipPath><clipPath id="clip21">  <path d="M 127.679688 204.960938 L 136.800781 204.960938 L 136.800781 214.078125 L 127.679688 214.078125 Z M 127.679688 204.960938 "/></clipPath><clipPath id="clip22">  <path d="M 143.039063 177.601563 L 152 177.601563 L 152 186.71875 L 143.039063 186.71875 Z M 143.039063 177.601563 "/></clipPath><clipPath id="clip23">  <path d="M 143.039063 177.601563 L 152.160156 177.601563 L 152.160156 186.71875 L 143.039063 186.71875 Z M 143.039063 177.601563 "/></clipPath><clipPath id="clip24">  <path d="M 153.359375 186.480469 L 162.480469 186.480469 L 162.480469 195.601563 L 153.359375 195.601563 Z M 153.359375 186.480469 "/></clipPath><clipPath id="clip25">  <path d="M 176.398438 177.121094 L 185.519531 177.121094 L 185.519531 186 L 176.398438 186 Z M 176.398438 177.121094 "/></clipPath><clipPath id="clip26">  <path d="M 176.398438 177.121094 L 185.519531 177.121094 L 185.519531 186.238281 L 176.398438 186.238281 Z M 176.398438 177.121094 "/></clipPath><clipPath id="clip27">  <path d="M 207.121094 157 L 216.238281 157 L 216.238281 166 L 207.121094 166 Z M 207.121094 157 "/></clipPath><clipPath id="clip28">  <path d="M 207.121094 156.960938 L 216.238281 156.960938 L 216.238281 166.078125 L 207.121094 166.078125 Z M 207.121094 156.960938 "/></clipPath><clipPath id="clip29">  <path d="M 322 86.640625 L 330.960938 86.640625 L 330.960938 95.761719 L 322 95.761719 Z M 322 86.640625 "/></clipPath><clipPath id="clip30">  <path d="M 321.839844 86.640625 L 330.960938 86.640625 L 330.960938 95.761719 L 321.839844 95.761719 Z M 321.839844 86.640625 "/></clipPath><clipPath id="clip31">  <path d="M 525.601563 68 L 534.71875 68 L 534.71875 77 L 525.601563 77 Z M 525.601563 68 "/></clipPath><clipPath id="clip32">  <path d="M 525.601563 67.921875 L 534.71875 67.921875 L 534.71875 77.039063 L 525.601563 77.039063 Z M 525.601563 67.921875 "/></clipPath><clipPath id="clip33">  <path d="M 353.039063 226 L 373.199219 226 L 373.199219 229 L 353.039063 229 Z M 353.039063 226 "/></clipPath><clipPath id="clip34">  <path d="M 358.558594 223 L 367.679688 223 L 367.679688 232 L 358.558594 232 Z M 358.558594 223 "/></clipPath><clipPath id="clip35">  <path d="M 353.039063 248 L 373.199219 248 L 373.199219 251 L 353.039063 251 Z M 353.039063 248 "/></clipPath><clipPath id="clip36">  <path d="M 358.558594 244.558594 L 367.679688 244.558594 L 367.679688 253.679688 L 358.558594 253.679688 Z M 358.558594 244.558594 "/></clipPath></defs><g id="surface494"><path style="fill:none;stroke-width:1.8;stroke-linecap:square;stroke-linejoin:miter;stroke:rgb(19.999695%,44.999695%,84.999084%);stroke-opacity:1;stroke-miterlimit:3.25;" d="M 64.78125 333.019531 L 65.246094 330.347656 L 69.433594 305.132813 L 111.320313 203.078125 L 132.265625 190.828125 L 147.625 176.9375 L 157.863281 177.511719 L 181.132813 169.546875 L 211.851563 157.113281 L 326.339844 138.355469 L 530.1875 138.289063 "/><g clip-path="url(#clip1)" clip-rule="nonzero"><path style="fill:none;stroke-width:1.8;stroke-linecap:butt;stroke-linejoin:miter;stroke:rgb(84.999084%,25%,19.999695%);stroke-opacity:1;stroke-dasharray:4,4;stroke-miterlimit:3.25;" d="M 64.78125 360.253906 L 65.246094 361.492188 L 69.433594 346.359375 L 111.320313 232.429688 L 132.265625 209.589844 L 147.625 182.277344 L 157.863281 191.058594 L 181.132813 181.644531 L 211.851563 161.515625 L 326.339844 91.1875 L 530.1875 72.601563 "/></g><g clip-path="url(#clip2)" clip-rule="nonzero"><path style=" stroke:none;fill-rule:evenodd;fill:rgb(19.999695%,44.999695%,84.999084%);fill-opacity:1;" d="M 69.101563 333.019531 C 69.101563 331.871094 68.644531 330.773438 67.835938 329.964844 C 67.023438 329.152344 65.925781 328.699219 64.78125 328.699219 C 63.636719 328.699219 62.535156 329.152344 61.726563 329.964844 C 60.914063 330.773438 60.460938 331.871094 60.460938 333.019531 C 60.460938 334.164063 60.914063 335.261719 61.726563 336.074219 C 62.535156 336.882813 63.636719 337.335938 64.78125 337.335938 C 65.925781 337.335938 67.023438 336.882813 67.835938 336.074219 C 68.644531 335.261719 69.101563 334.164063 69.101563 333.019531 Z M 69.101563 333.019531 "/></g><g clip-path="url(#clip3)" clip-rule="nonzero"><path style=" stroke:none;fill-rule:evenodd;fill:rgb(19.999695%,44.999695%,84.999084%);fill-opacity:1;" d="M 69.566406 330.347656 C 69.566406 329.203125 69.109375 328.105469 68.300781 327.292969 C 67.492188 326.484375 66.390625 326.027344 65.246094 326.027344 C 64.101563 326.027344 63 326.484375 62.191406 327.292969 C 61.382813 328.105469 60.925781 329.203125 60.925781 330.347656 C 60.925781 331.496094 61.382813 332.59375 62.191406 333.402344 C 63 334.214844 64.101563 334.667969 65.246094 334.667969 C 66.390625 334.667969 67.492188 334.214844 68.300781 333.402344 C 69.109375 332.59375 69.566406 331.496094 69.566406 330.347656 Z M 69.566406 330.347656 "/></g><g clip-path="url(#clip4)" clip-rule="nonzero"><path style=" stroke:none;fill-rule:evenodd;fill:rgb(19.999695%,44.999695%,84.999084%);fill-opacity:1;" d="M 73.753906 305.132813 C 73.753906 303.984375 73.300781 302.886719 72.488281 302.078125 C 71.679688 301.265625 70.582031 300.8125 69.433594 300.8125 C 68.289063 300.8125 67.191406 301.265625 66.378906 302.078125 C 65.570313 302.886719 65.113281 303.984375 65.113281 305.132813 C 65.113281 306.277344 65.570313 307.375 66.378906 308.1875 C 67.191406 308.996094 68.289063 309.453125 69.433594 309.453125 C 70.582031 309.453125 71.679688 308.996094 72.488281 308.1875 C 73.300781 307.375 73.753906 306.277344 73.753906 305.132813 Z M 73.753906 305.132813 "/></g><g clip-path="url(#clip5)" clip-rule="nonzero"><path style=" stroke:none;fill-rule:evenodd;fill:rgb(19.999695%,44.999695%,84.999084%);fill-opacity:1;" d="M 115.640625 203.078125 C 115.640625 201.929688 115.1875 200.832031 114.375 200.023438 C 113.566406 199.210938 112.46875 198.757813 111.320313 198.757813 C 110.175781 198.757813 109.078125 199.210938 108.265625 200.023438 C 107.457031 200.832031 107 201.929688 107 203.078125 C 107 204.222656 107.457031 205.320313 108.265625 206.132813 C 109.078125 206.941406 110.175781 207.398438 111.320313 207.398438 C 112.46875 207.398438 113.566406 206.941406 114.375 206.132813 C 115.1875 205.320313 115.640625 204.222656 115.640625 203.078125 Z M 115.640625 203.078125 "/></g><g clip-path="url(#clip6)" clip-rule="nonzero"><path style=" stroke:none;fill-rule:evenodd;fill:rgb(19.999695%,44.999695%,84.999084%);fill-opacity:1;" d="M 136.585938 190.828125 C 136.585938 189.679688 136.128906 188.582031 135.320313 187.773438 C 134.507813 186.960938 133.410156 186.507813 132.265625 186.507813 C 131.121094 186.507813 130.019531 186.960938 129.210938 187.773438 C 128.398438 188.582031 127.945313 189.679688 127.945313 190.828125 C 127.945313 191.972656 128.398438 193.070313 129.210938 193.882813 C 130.019531 194.691406 131.121094 195.148438 132.265625 195.148438 C 133.410156 195.148438 134.507813 194.691406 135.320313 193.882813 C 136.128906 193.070313 136.585938 191.972656 136.585938 190.828125 Z M 136.585938 190.828125 "/></g><g clip-path="url(#clip7)" clip-rule="nonzero"><path style=" stroke:none;fill-rule:evenodd;fill:rgb(19.999695%,44.999695%,84.999084%);fill-opacity:1;" d="M 151.945313 176.9375 C 151.945313 175.792969 151.488281 174.695313 150.679688 173.882813 C 149.867188 173.074219 148.769531 172.617188 147.625 172.617188 C 146.476563 172.617188 145.378906 173.074219 144.570313 173.882813 C 143.757813 174.695313 143.304688 175.792969 143.304688 176.9375 C 143.304688 178.082031 143.757813 179.183594 144.570313 179.992188 C 145.378906 180.804688 146.476563 181.257813 147.625 181.257813 C 148.769531 181.257813 149.867188 180.804688 150.679688 179.992188 C 151.488281 179.183594 151.945313 178.082031 151.945313 176.9375 Z M 151.945313 176.9375 "/></g><g clip-path="url(#clip8)" clip-rule="nonzero"><path style=" stroke:none;fill-rule:evenodd;fill:rgb(19.999695%,44.999695%,84.999084%);fill-opacity:1;" d="M 162.183594 177.511719 C 162.183594 176.367188 161.726563 175.269531 160.917969 174.457031 C 160.105469 173.648438 159.007813 173.191406 157.863281 173.191406 C 156.714844 173.191406 155.617188 173.648438 154.808594 174.457031 C 153.996094 175.269531 153.542969 176.367188 153.542969 177.511719 C 153.542969 178.660156 153.996094 179.757813 154.808594 180.566406 C 155.617188 181.378906 156.714844 181.832031 157.863281 181.832031 C 159.007813 181.832031 160.105469 181.378906 160.917969 180.566406 C 161.726563 179.757813 162.183594 178.660156 162.183594 177.511719 Z M 162.183594 177.511719 "/></g><g clip-path="url(#clip9)" clip-rule="nonzero"><path style=" stroke:none;fill-rule:evenodd;fill:rgb(19.999695%,44.999695%,84.999084%);fill-opacity:1;" d="M 185.453125 169.546875 C 185.453125 168.402344 184.996094 167.300781 184.1875 166.492188 C 183.378906 165.683594 182.277344 165.226563 181.132813 165.226563 C 179.988281 165.226563 178.886719 165.683594 178.078125 166.492188 C 177.269531 167.300781 176.8125 168.402344 176.8125 169.546875 C 176.8125 170.691406 177.269531 171.792969 178.078125 172.601563 C 178.886719 173.410156 179.988281 173.867188 181.132813 173.867188 C 182.277344 173.867188 183.378906 173.410156 184.1875 172.601563 C 184.996094 171.792969 185.453125 170.691406 185.453125 169.546875 Z M 185.453125 169.546875 "/></g><g clip-path="url(#clip10)" clip-rule="nonzero"><path style=" stroke:none;fill-rule:evenodd;fill:rgb(19.999695%,44.999695%,84.999084%);fill-opacity:1;" d="M 216.167969 157.113281 C 216.167969 155.96875 215.714844 154.867188 214.90625 154.058594 C 214.09375 153.246094 212.996094 152.792969 211.851563 152.792969 C 210.703125 152.792969 209.605469 153.246094 208.796875 154.058594 C 207.984375 154.867188 207.53125 155.96875 207.53125 157.113281 C 207.53125 158.257813 207.984375 159.355469 208.796875 160.167969 C 209.605469 160.976563 210.703125 161.433594 211.851563 161.433594 C 212.996094 161.433594 214.09375 160.976563 214.90625 160.167969 C 215.714844 159.355469 216.167969 158.257813 216.167969 157.113281 Z M 216.167969 157.113281 "/></g><g clip-path="url(#clip11)" clip-rule="nonzero"><path style=" stroke:none;fill-rule:evenodd;fill:rgb(19.999695%,44.999695%,84.999084%);fill-opacity:1;" d="M 330.660156 138.355469 C 330.660156 137.210938 330.203125 136.113281 329.394531 135.300781 C 328.585938 134.492188 327.484375 134.035156 326.339844 134.035156 C 325.195313 134.035156 324.09375 134.492188 323.285156 135.300781 C 322.476563 136.113281 322.019531 137.210938 322.019531 138.355469 C 322.019531 139.503906 322.476563 140.601563 323.285156 141.410156 C 324.09375 142.222656 325.195313 142.675781 326.339844 142.675781 C 327.484375 142.675781 328.585938 142.222656 329.394531 141.410156 C 330.203125 140.601563 330.660156 139.503906 330.660156 138.355469 Z M 330.660156 138.355469 "/></g><g clip-path="url(#clip12)" clip-rule="nonzero"><path style=" stroke:none;fill-rule:evenodd;fill:rgb(19.999695%,44.999695%,84.999084%);fill-opacity:1;" d="M 534.507813 138.289063 C 534.507813 137.144531 534.054688 136.046875 533.242188 135.234375 C 532.433594 134.425781 531.335938 133.96875 530.1875 133.96875 C 529.042969 133.96875 527.945313 134.425781 527.132813 135.234375 C 526.324219 136.046875 525.867188 137.144531 525.867188 138.289063 C 525.867188 139.4375 526.324219 140.535156 527.132813 141.34375 C 527.945313 142.15625 529.042969 142.609375 530.1875 142.609375 C 531.335938 142.609375 532.433594 142.15625 533.242188 141.34375 C 534.054688 140.535156 534.507813 139.4375 534.507813 138.289063 Z M 534.507813 138.289063 "/></g><g clip-path="url(#clip13)" clip-rule="nonzero"><path style="fill-rule:nonzero;fill:rgb(84.999084%,25%,19.999695%);fill-opacity:1;stroke-width:1.8;stroke-linecap:butt;stroke-linejoin:miter;stroke:rgb(84.999084%,25%,19.999695%);stroke-opacity:1;stroke-dasharray:4,4;stroke-miterlimit:3.239307;" d="M 60.460938 364.574219 L 69.101563 364.574219 L 69.101563 355.933594 L 60.460938 355.933594 Z M 60.460938 364.574219 "/></g><g clip-path="url(#clip14)" clip-rule="nonzero"><path style=" stroke:none;fill-rule:nonzero;fill:rgb(84.999084%,25%,19.999695%);fill-opacity:1;" d="M 60.925781 365.8125 L 69.566406 365.8125 L 69.566406 357.171875 L 60.925781 357.171875 Z M 60.925781 365.8125 "/></g><g clip-path="url(#clip15)" clip-rule="nonzero"><path style="fill:none;stroke-width:1.8;stroke-linecap:butt;stroke-linejoin:miter;stroke:rgb(84.999084%,25%,19.999695%);stroke-opacity:1;stroke-dasharray:4,4;stroke-miterlimit:3.239307;" d="M 60.925781 365.8125 L 69.566406 365.8125 L 69.566406 357.171875 L 60.925781 357.171875 Z M 60.925781 365.8125 "/></g><g clip-path="url(#clip16)" clip-rule="nonzero"><path style=" stroke:none;fill-rule:nonzero;fill:rgb(84.999084%,25%,19.999695%);fill-opacity:1;" d="M 65.113281 350.679688 L 73.753906 350.679688 L 73.753906 342.039063 L 65.113281 342.039063 Z M 65.113281 350.679688 "/></g><g clip-path="url(#clip17)" clip-rule="nonzero"><path style="fill:none;stroke-width:1.8;stroke-linecap:butt;stroke-linejoin:miter;stroke:rgb(84.999084%,25%,19.999695%);stroke-opacity:1;stroke-dasharray:4,4;stroke-miterlimit:3.239307;" d="M 65.113281 350.679688 L 73.753906 350.679688 L 73.753906 342.039063 L 65.113281 342.039063 Z M 65.113281 350.679688 "/></g><g clip-path="url(#clip18)" clip-rule="nonzero"><path style=" stroke:none;fill-rule:nonzero;fill:rgb(84.999084%,25%,19.999695%);fill-opacity:1;" d="M 107 236.75 L 115.640625 236.75 L 115.640625 228.109375 L 107 228.109375 Z M 107 236.75 "/></g><g clip-path="url(#clip19)" clip-rule="nonzero"><path style="fill:none;stroke-width:1.8;stroke-linecap:butt;stroke-linejoin:miter;stroke:rgb(84.999084%,25%,19.999695%);stroke-opacity:1;stroke-dasharray:4,4;stroke-miterlimit:3.239307;" d="M 107 236.75 L 115.640625 236.75 L 115.640625 228.109375 L 107 228.109375 Z M 107 236.75 "/></g><g clip-path="url(#clip20)" clip-rule="nonzero"><path style=" stroke:none;fill-rule:nonzero;fill:rgb(84.999084%,25%,19.999695%);fill-opacity:1;" d="M 127.945313 213.910156 L 136.585938 213.910156 L 136.585938 205.269531 L 127.945313 205.269531 Z M 127.945313 213.910156 "/></g><g clip-path="url(#clip21)" clip-rule="nonzero"><path style="fill:none;stroke-width:1.8;stroke-linecap:butt;stroke-linejoin:miter;stroke:rgb(84.999084%,25%,19.999695%);stroke-opacity:1;stroke-dasharray:4,4;stroke-miterlimit:3.239307;" d="M 127.945313 213.910156 L 136.585938 213.910156 L 136.585938 205.269531 L 127.945313 205.269531 Z M 127.945313 213.910156 "/></g><g clip-path="url(#clip22)" clip-rule="nonzero"><path style=" stroke:none;fill-rule:nonzero;fill:rgb(84.999084%,25%,19.999695%);fill-opacity:1;" d="M 143.304688 186.597656 L 151.945313 186.597656 L 151.945313 177.957031 L 143.304688 177.957031 Z M 143.304688 186.597656 "/></g><g clip-path="url(#clip23)" clip-rule="nonzero"><path style="fill:none;stroke-width:1.8;stroke-linecap:butt;stroke-linejoin:miter;stroke:rgb(84.999084%,25%,19.999695%);stroke-opacity:1;stroke-dasharray:4,4;stroke-miterlimit:3.239307;" d="M 143.304688 186.597656 L 151.945313 186.597656 L 151.945313 177.957031 L 143.304688 177.957031 Z M 143.304688 186.597656 "/></g><g clip-path="url(#clip24)" clip-rule="nonzero"><path style="fill-rule:nonzero;fill:rgb(84.999084%,25%,19.999695%);fill-opacity:1;stroke-width:1.8;stroke-linecap:butt;stroke-linejoin:miter;stroke:rgb(84.999084%,25%,19.999695%);stroke-opacity:1;stroke-dasharray:4,4;stroke-miterlimit:3.239307;" d="M 153.542969 195.378906 L 162.183594 195.378906 L 162.183594 186.738281 L 153.542969 186.738281 Z M 153.542969 195.378906 "/></g><g clip-path="url(#clip25)" clip-rule="nonzero"><path style=" stroke:none;fill-rule:nonzero;fill:rgb(84.999084%,25%,19.999695%);fill-opacity:1;" d="M 176.8125 185.964844 L 185.453125 185.964844 L 185.453125 177.324219 L 176.8125 177.324219 Z M 176.8125 185.964844 "/></g><g clip-path="url(#clip26)" clip-rule="nonzero"><path style="fill:none;stroke-width:1.8;stroke-linecap:butt;stroke-linejoin:miter;stroke:rgb(84.999084%,25%,19.999695%);stroke-opacity:1;stroke-dasharray:4,4;stroke-miterlimit:3.239307;" d="M 176.8125 185.964844 L 185.453125 185.964844 L 185.453125 177.324219 L 176.8125 177.324219 Z M 176.8125 185.964844 "/></g><g clip-path="url(#clip27)" clip-rule="nonzero"><path style=" stroke:none;fill-rule:nonzero;fill:rgb(84.999084%,25%,19.999695%);fill-opacity:1;" d="M 207.53125 165.835938 L 216.167969 165.835938 L 216.167969 157.195313 L 207.53125 157.195313 Z M 207.53125 165.835938 "/></g><g clip-path="url(#clip28)" clip-rule="nonzero"><path style="fill:none;stroke-width:1.8;stroke-linecap:butt;stroke-linejoin:miter;stroke:rgb(84.999084%,25%,19.999695%);stroke-opacity:1;stroke-dasharray:4,4;stroke-miterlimit:3.239307;" d="M 207.53125 165.835938 L 216.167969 165.835938 L 216.167969 157.195313 L 207.53125 157.195313 Z M 207.53125 165.835938 "/></g><g clip-path="url(#clip29)" clip-rule="nonzero"><path style=" stroke:none;fill-rule:nonzero;fill:rgb(84.999084%,25%,19.999695%);fill-opacity:1;" d="M 322.019531 95.507813 L 330.660156 95.507813 L 330.660156 86.867188 L 322.019531 86.867188 Z M 322.019531 95.507813 "/></g><g clip-path="url(#clip30)" clip-rule="nonzero"><path style="fill:none;stroke-width:1.8;stroke-linecap:butt;stroke-linejoin:miter;stroke:rgb(84.999084%,25%,19.999695%);stroke-opacity:1;stroke-dasharray:4,4;stroke-miterlimit:3.239307;" d="M 322.019531 95.507813 L 330.660156 95.507813 L 330.660156 86.867188 L 322.019531 86.867188 Z M 322.019531 95.507813 "/></g><g clip-path="url(#clip31)" clip-rule="nonzero"><path style=" stroke:none;fill-rule:nonzero;fill:rgb(84.999084%,25%,19.999695%);fill-opacity:1;" d="M 525.867188 76.921875 L 534.507813 76.921875 L 534.507813 68.28125 L 525.867188 68.28125 Z M 525.867188 76.921875 "/></g><g clip-path="url(#clip32)" clip-rule="nonzero"><path style="fill:none;stroke-width:1.8;stroke-linecap:butt;stroke-linejoin:miter;stroke:rgb(84.999084%,25%,19.999695%);stroke-opacity:1;stroke-dasharray:4,4;stroke-miterlimit:3.239307;" d="M 525.867188 76.921875 L 534.507813 76.921875 L 534.507813 68.28125 L 525.867188 68.28125 Z M 525.867188 76.921875 "/></g><g clip-path="url(#clip33)" clip-rule="nonzero"><path style="fill:none;stroke-width:1.6;stroke-linecap:square;stroke-linejoin:miter;stroke:rgb(19.999695%,44.999695%,84.999084%);stroke-opacity:1;stroke-miterlimit:3.25;" d="M 353.957031 227.640625 L 372.359375 227.640625 "/></g><g clip-path="url(#clip34)" clip-rule="nonzero"><path style=" stroke:none;fill-rule:evenodd;fill:rgb(19.999695%,44.999695%,84.999084%);fill-opacity:1;" d="M 367.484375 227.640625 C 367.484375 226.492188 367.03125 225.390625 366.21875 224.578125 C 365.40625 223.769531 364.304688 223.3125 363.160156 223.3125 C 362.011719 223.3125 360.910156 223.769531 360.097656 224.578125 C 359.289063 225.390625 358.832031 226.492188 358.832031 227.640625 C 358.832031 228.785156 359.289063 229.886719 360.097656 230.699219 C 360.910156 231.511719 362.011719 231.964844 363.160156 231.964844 C 364.304688 231.964844 365.40625 231.511719 366.21875 230.699219 C 367.03125 229.886719 367.484375 228.785156 367.484375 227.640625 Z M 367.484375 227.640625 "/></g><g style="fill:rgb(99.998474%,99.998474%,99.998474%);fill-opacity:1;">  <use xlink:href="#glyph0-1" x="379.158892" y="231.139066"/>  <use xlink:href="#glyph0-2" x="385.83272" y="231.139066"/>  <use xlink:href="#glyph0-3" x="392.506548" y="231.139066"/>  <use xlink:href="#glyph0-4" x="398.506548" y="231.139066"/>  <use xlink:href="#glyph0-5" x="405.180376" y="231.139066"/>  <use xlink:href="#glyph0-6" x="407.846392" y="231.139066"/>  <use xlink:href="#glyph0-7" x="410.512408" y="231.139066"/>  <use xlink:href="#glyph0-4" x="417.186236" y="231.139066"/></g><g style="fill:rgb(99.998474%,99.998474%,99.998474%);fill-opacity:1;">  <use xlink:href="#glyph1-1" x="427.194048" y="231.139066"/></g><g style="fill:rgb(99.998474%,99.998474%,99.998474%);fill-opacity:1;">  <use xlink:href="#glyph0-8" x="431.190142" y="231.139066"/>  <use xlink:href="#glyph0-3" x="439.856158" y="231.139066"/></g><g style="fill:rgb(99.998474%,99.998474%,99.998474%);fill-opacity:1;">  <use xlink:href="#glyph0-9" x="449.190142" y="231.139066"/>  <use xlink:href="#glyph0-6" x="452.524126" y="231.139066"/>  <use xlink:href="#glyph0-10" x="455.190142" y="231.139066"/>  <use xlink:href="#glyph0-10" x="458.524126" y="231.139066"/>  <use xlink:href="#glyph0-4" x="461.858111" y="231.139066"/>  <use xlink:href="#glyph0-11" x="468.531939" y="231.139066"/></g><g style="fill:rgb(99.998474%,99.998474%,99.998474%);fill-opacity:1;">  <use xlink:href="#glyph1-2" x="475.205767" y="231.139066"/></g><g clip-path="url(#clip35)" clip-rule="nonzero"><path style="fill:none;stroke-width:1.6;stroke-linecap:square;stroke-linejoin:miter;stroke:rgb(84.999084%,25%,19.999695%);stroke-opacity:1;stroke-miterlimit:3.25;" d="M 353.957031 249.238281 L 372.359375 249.238281 "/></g><g clip-path="url(#clip36)" clip-rule="nonzero"><path style="fill-rule:nonzero;fill:rgb(84.999084%,25%,19.999695%);fill-opacity:1;stroke-width:1.6;stroke-linecap:square;stroke-linejoin:miter;stroke:rgb(84.999084%,25%,19.999695%);stroke-opacity:1;stroke-miterlimit:3.239307;" d="M 358.832031 253.566406 L 367.484375 253.566406 L 367.484375 244.914063 L 358.832031 244.914063 Z M 358.832031 253.566406 "/></g><g style="fill:rgb(99.998474%,99.998474%,99.998474%);fill-opacity:1;">  <use xlink:href="#glyph0-8" x="379.158892" y="252.739066"/>  <use xlink:href="#glyph0-3" x="387.824908" y="252.739066"/></g><g style="fill:rgb(99.998474%,99.998474%,99.998474%);fill-opacity:1;">  <use xlink:href="#glyph1-3" x="397.158892" y="252.739066"/></g><g style="fill:rgb(99.998474%,99.998474%,99.998474%);fill-opacity:1;">  <use xlink:href="#glyph0-12" x="407.500689" y="252.739066"/></g><path style="fill:none;stroke-width:1.1;stroke-linecap:square;stroke-linejoin:miter;stroke:rgb(99.998474%,99.998474%,99.998474%);stroke-opacity:1;stroke-miterlimit:3.25;" d="M 559.449219 363.679688 L 49.480469 363.679688 "/><path style="fill:none;stroke-width:1.1;stroke-linecap:square;stroke-linejoin:miter;stroke:rgb(99.998474%,99.998474%,99.998474%);stroke-opacity:1;stroke-miterlimit:3.25;" d="M 49.480469 363.679688 L 49.480469 6.703125 "/><path style="fill:none;stroke-width:1.1;stroke-linecap:square;stroke-linejoin:miter;stroke:rgb(99.998474%,99.998474%,99.998474%);stroke-opacity:1;stroke-miterlimit:3.25;" d="M 49.480469 6.703125 L 559.449219 6.703125 "/><path style="fill:none;stroke-width:1.1;stroke-linecap:square;stroke-linejoin:miter;stroke:rgb(99.998474%,99.998474%,99.998474%);stroke-opacity:1;stroke-miterlimit:3.25;" d="M 559.449219 6.703125 L 559.449219 363.679688 "/><path style="fill:none;stroke-width:1.1;stroke-linecap:butt;stroke-linejoin:miter;stroke:rgb(99.998474%,99.998474%,99.998474%);stroke-opacity:1;stroke-miterlimit:3.25;" d="M 64.78125 371.839844 L 64.78125 363.679688 "/><g style="fill:rgb(99.998474%,99.998474%,99.998474%);fill-opacity:1;">  <use xlink:href="#glyph0-12" x="61.443891" y="385.703668"/></g><path style="fill:none;stroke-width:1.1;stroke-linecap:butt;stroke-linejoin:miter;stroke:rgb(99.998474%,99.998474%,99.998474%);stroke-opacity:1;stroke-miterlimit:3.25;" d="M 157.863281 371.839844 L 157.863281 363.679688 "/><g style="fill:rgb(99.998474%,99.998474%,99.998474%);fill-opacity:1;">  <use xlink:href="#glyph0-13" x="147.851645" y="385.703668"/>  <use xlink:href="#glyph0-12" x="154.525473" y="385.703668"/>  <use xlink:href="#glyph0-12" x="161.199301" y="385.703668"/></g><path style="fill:none;stroke-width:1.1;stroke-linecap:butt;stroke-linejoin:miter;stroke:rgb(99.998474%,99.998474%,99.998474%);stroke-opacity:1;stroke-miterlimit:3.25;" d="M 250.945313 371.839844 L 250.945313 363.679688 "/><g style="fill:rgb(99.998474%,99.998474%,99.998474%);fill-opacity:1;">  <use xlink:href="#glyph0-14" x="240.933227" y="385.703668"/>  <use xlink:href="#glyph0-12" x="247.607055" y="385.703668"/>  <use xlink:href="#glyph0-12" x="254.280883" y="385.703668"/></g><path style="fill:none;stroke-width:1.1;stroke-linecap:butt;stroke-linejoin:miter;stroke:rgb(99.998474%,99.998474%,99.998474%);stroke-opacity:1;stroke-miterlimit:3.25;" d="M 344.027344 371.839844 L 344.027344 363.679688 "/><g style="fill:rgb(99.998474%,99.998474%,99.998474%);fill-opacity:1;">  <use xlink:href="#glyph0-15" x="334.014809" y="385.703668"/>  <use xlink:href="#glyph0-12" x="340.688637" y="385.703668"/>  <use xlink:href="#glyph0-12" x="347.362465" y="385.703668"/></g><path style="fill:none;stroke-width:1.1;stroke-linecap:butt;stroke-linejoin:miter;stroke:rgb(99.998474%,99.998474%,99.998474%);stroke-opacity:1;stroke-miterlimit:3.25;" d="M 437.105469 371.839844 L 437.105469 363.679688 "/><g style="fill:rgb(99.998474%,99.998474%,99.998474%);fill-opacity:1;">  <use xlink:href="#glyph0-16" x="427.096391" y="385.703668"/>  <use xlink:href="#glyph0-12" x="433.770219" y="385.703668"/>  <use xlink:href="#glyph0-12" x="440.444047" y="385.703668"/></g><path style="fill:none;stroke-width:1.1;stroke-linecap:butt;stroke-linejoin:miter;stroke:rgb(99.998474%,99.998474%,99.998474%);stroke-opacity:1;stroke-miterlimit:3.25;" d="M 530.1875 371.839844 L 530.1875 363.679688 "/><g style="fill:rgb(99.998474%,99.998474%,99.998474%);fill-opacity:1;">  <use xlink:href="#glyph0-17" x="516.841059" y="385.703668"/>  <use xlink:href="#glyph0-12" x="523.514887" y="385.703668"/>  <use xlink:href="#glyph0-12" x="530.188715" y="385.703668"/>  <use xlink:href="#glyph0-12" x="536.862544" y="385.703668"/></g><path style="fill:none;stroke-width:1.1;stroke-linecap:butt;stroke-linejoin:miter;stroke:rgb(99.998474%,99.998474%,99.998474%);stroke-opacity:1;stroke-miterlimit:3.25;" d="M 83.398438 367.761719 L 83.398438 363.679688 "/><path style="fill:none;stroke-width:1.1;stroke-linecap:butt;stroke-linejoin:miter;stroke:rgb(99.998474%,99.998474%,99.998474%);stroke-opacity:1;stroke-miterlimit:3.25;" d="M 102.011719 367.761719 L 102.011719 363.679688 "/><path style="fill:none;stroke-width:1.1;stroke-linecap:butt;stroke-linejoin:miter;stroke:rgb(99.998474%,99.998474%,99.998474%);stroke-opacity:1;stroke-miterlimit:3.25;" d="M 120.628906 367.761719 L 120.628906 363.679688 "/><path style="fill:none;stroke-width:1.1;stroke-linecap:butt;stroke-linejoin:miter;stroke:rgb(99.998474%,99.998474%,99.998474%);stroke-opacity:1;stroke-miterlimit:3.25;" d="M 139.246094 367.761719 L 139.246094 363.679688 "/><path style="fill:none;stroke-width:1.1;stroke-linecap:butt;stroke-linejoin:miter;stroke:rgb(99.998474%,99.998474%,99.998474%);stroke-opacity:1;stroke-miterlimit:3.25;" d="M 176.480469 367.761719 L 176.480469 363.679688 "/><path style="fill:none;stroke-width:1.1;stroke-linecap:butt;stroke-linejoin:miter;stroke:rgb(99.998474%,99.998474%,99.998474%);stroke-opacity:1;stroke-miterlimit:3.25;" d="M 195.09375 367.761719 L 195.09375 363.679688 "/><path style="fill:none;stroke-width:1.1;stroke-linecap:butt;stroke-linejoin:miter;stroke:rgb(99.998474%,99.998474%,99.998474%);stroke-opacity:1;stroke-miterlimit:3.25;" d="M 213.710938 367.761719 L 213.710938 363.679688 "/><path style="fill:none;stroke-width:1.1;stroke-linecap:butt;stroke-linejoin:miter;stroke:rgb(99.998474%,99.998474%,99.998474%);stroke-opacity:1;stroke-miterlimit:3.25;" d="M 232.328125 367.761719 L 232.328125 363.679688 "/><path style="fill:none;stroke-width:1.1;stroke-linecap:butt;stroke-linejoin:miter;stroke:rgb(99.998474%,99.998474%,99.998474%);stroke-opacity:1;stroke-miterlimit:3.25;" d="M 269.558594 367.761719 L 269.558594 363.679688 "/><path style="fill:none;stroke-width:1.1;stroke-linecap:butt;stroke-linejoin:miter;stroke:rgb(99.998474%,99.998474%,99.998474%);stroke-opacity:1;stroke-miterlimit:3.25;" d="M 288.175781 367.761719 L 288.175781 363.679688 "/><path style="fill:none;stroke-width:1.1;stroke-linecap:butt;stroke-linejoin:miter;stroke:rgb(99.998474%,99.998474%,99.998474%);stroke-opacity:1;stroke-miterlimit:3.25;" d="M 306.792969 367.761719 L 306.792969 363.679688 "/><path style="fill:none;stroke-width:1.1;stroke-linecap:butt;stroke-linejoin:miter;stroke:rgb(99.998474%,99.998474%,99.998474%);stroke-opacity:1;stroke-miterlimit:3.25;" d="M 325.410156 367.761719 L 325.410156 363.679688 "/><path style="fill:none;stroke-width:1.1;stroke-linecap:butt;stroke-linejoin:miter;stroke:rgb(99.998474%,99.998474%,99.998474%);stroke-opacity:1;stroke-miterlimit:3.25;" d="M 362.640625 367.761719 L 362.640625 363.679688 "/><path style="fill:none;stroke-width:1.1;stroke-linecap:butt;stroke-linejoin:miter;stroke:rgb(99.998474%,99.998474%,99.998474%);stroke-opacity:1;stroke-miterlimit:3.25;" d="M 381.257813 367.761719 L 381.257813 363.679688 "/><path style="fill:none;stroke-width:1.1;stroke-linecap:butt;stroke-linejoin:miter;stroke:rgb(99.998474%,99.998474%,99.998474%);stroke-opacity:1;stroke-miterlimit:3.25;" d="M 399.875 367.761719 L 399.875 363.679688 "/><path style="fill:none;stroke-width:1.1;stroke-linecap:butt;stroke-linejoin:miter;stroke:rgb(99.998474%,99.998474%,99.998474%);stroke-opacity:1;stroke-miterlimit:3.25;" d="M 418.492188 367.761719 L 418.492188 363.679688 "/><path style="fill:none;stroke-width:1.1;stroke-linecap:butt;stroke-linejoin:miter;stroke:rgb(99.998474%,99.998474%,99.998474%);stroke-opacity:1;stroke-miterlimit:3.25;" d="M 455.722656 367.761719 L 455.722656 363.679688 "/><path style="fill:none;stroke-width:1.1;stroke-linecap:butt;stroke-linejoin:miter;stroke:rgb(99.998474%,99.998474%,99.998474%);stroke-opacity:1;stroke-miterlimit:3.25;" d="M 474.339844 367.761719 L 474.339844 363.679688 "/><path style="fill:none;stroke-width:1.1;stroke-linecap:butt;stroke-linejoin:miter;stroke:rgb(99.998474%,99.998474%,99.998474%);stroke-opacity:1;stroke-miterlimit:3.25;" d="M 492.957031 367.761719 L 492.957031 363.679688 "/><path style="fill:none;stroke-width:1.1;stroke-linecap:butt;stroke-linejoin:miter;stroke:rgb(99.998474%,99.998474%,99.998474%);stroke-opacity:1;stroke-miterlimit:3.25;" d="M 511.574219 367.761719 L 511.574219 363.679688 "/><path style="fill:none;stroke-width:1.1;stroke-linecap:butt;stroke-linejoin:miter;stroke:rgb(99.998474%,99.998474%,99.998474%);stroke-opacity:1;stroke-miterlimit:3.25;" d="M 41.324219 363.679688 L 49.480469 363.679688 "/><g style="fill:rgb(99.998474%,99.998474%,99.998474%);fill-opacity:1;">  <use xlink:href="#glyph0-12" x="31.648438" y="367.841051"/></g><path style="fill:none;stroke-width:1.1;stroke-linecap:butt;stroke-linejoin:miter;stroke:rgb(99.998474%,99.998474%,99.998474%);stroke-opacity:1;stroke-miterlimit:3.25;" d="M 41.324219 292.285156 L 49.480469 292.285156 "/><g style="fill:rgb(99.998474%,99.998474%,99.998474%);fill-opacity:1;">  <use xlink:href="#glyph0-12" x="21.640625" y="296.445497"/>  <use xlink:href="#glyph0-18" x="28.314453" y="296.445497"/>  <use xlink:href="#glyph0-13" x="31.648438" y="296.445497"/></g><path style="fill:none;stroke-width:1.1;stroke-linecap:butt;stroke-linejoin:miter;stroke:rgb(99.998474%,99.998474%,99.998474%);stroke-opacity:1;stroke-miterlimit:3.25;" d="M 41.324219 220.890625 L 49.480469 220.890625 "/><g style="fill:rgb(99.998474%,99.998474%,99.998474%);fill-opacity:1;">  <use xlink:href="#glyph0-12" x="21.640625" y="225.049943"/>  <use xlink:href="#glyph0-18" x="28.314453" y="225.049943"/>  <use xlink:href="#glyph0-14" x="31.648438" y="225.049943"/></g><path style="fill:none;stroke-width:1.1;stroke-linecap:butt;stroke-linejoin:miter;stroke:rgb(99.998474%,99.998474%,99.998474%);stroke-opacity:1;stroke-miterlimit:3.25;" d="M 41.324219 149.496094 L 49.480469 149.496094 "/><g style="fill:rgb(99.998474%,99.998474%,99.998474%);fill-opacity:1;">  <use xlink:href="#glyph0-12" x="21.640625" y="153.654389"/>  <use xlink:href="#glyph0-18" x="28.314453" y="153.654389"/>  <use xlink:href="#glyph0-15" x="31.648438" y="153.654389"/></g><path style="fill:none;stroke-width:1.1;stroke-linecap:butt;stroke-linejoin:miter;stroke:rgb(99.998474%,99.998474%,99.998474%);stroke-opacity:1;stroke-miterlimit:3.25;" d="M 41.324219 78.097656 L 49.480469 78.097656 "/><g style="fill:rgb(99.998474%,99.998474%,99.998474%);fill-opacity:1;">  <use xlink:href="#glyph0-12" x="21.640625" y="82.258835"/>  <use xlink:href="#glyph0-18" x="28.314453" y="82.258835"/>  <use xlink:href="#glyph0-16" x="31.648438" y="82.258835"/></g><path style="fill:none;stroke-width:1.1;stroke-linecap:butt;stroke-linejoin:miter;stroke:rgb(99.998474%,99.998474%,99.998474%);stroke-opacity:1;stroke-miterlimit:3.25;" d="M 41.324219 6.703125 L 49.480469 6.703125 "/><g style="fill:rgb(99.998474%,99.998474%,99.998474%);fill-opacity:1;">  <use xlink:href="#glyph0-17" x="31.648438" y="10.863281"/></g><path style="fill:none;stroke-width:1.1;stroke-linecap:butt;stroke-linejoin:miter;stroke:rgb(99.998474%,99.998474%,99.998474%);stroke-opacity:1;stroke-miterlimit:3.25;" d="M 45.402344 349.402344 L 49.480469 349.402344 "/><path style="fill:none;stroke-width:1.1;stroke-linecap:butt;stroke-linejoin:miter;stroke:rgb(99.998474%,99.998474%,99.998474%);stroke-opacity:1;stroke-miterlimit:3.25;" d="M 45.402344 335.121094 L 49.480469 335.121094 "/><path style="fill:none;stroke-width:1.1;stroke-linecap:butt;stroke-linejoin:miter;stroke:rgb(99.998474%,99.998474%,99.998474%);stroke-opacity:1;stroke-miterlimit:3.25;" d="M 45.402344 320.84375 L 49.480469 320.84375 "/><path style="fill:none;stroke-width:1.1;stroke-linecap:butt;stroke-linejoin:miter;stroke:rgb(99.998474%,99.998474%,99.998474%);stroke-opacity:1;stroke-miterlimit:3.25;" d="M 45.402344 306.5625 L 49.480469 306.5625 "/><path style="fill:none;stroke-width:1.1;stroke-linecap:butt;stroke-linejoin:miter;stroke:rgb(99.998474%,99.998474%,99.998474%);stroke-opacity:1;stroke-miterlimit:3.25;" d="M 45.402344 292.285156 L 49.480469 292.285156 "/><path style="fill:none;stroke-width:1.1;stroke-linecap:butt;stroke-linejoin:miter;stroke:rgb(99.998474%,99.998474%,99.998474%);stroke-opacity:1;stroke-miterlimit:3.25;" d="M 45.402344 278.007813 L 49.480469 278.007813 "/><path style="fill:none;stroke-width:1.1;stroke-linecap:butt;stroke-linejoin:miter;stroke:rgb(99.998474%,99.998474%,99.998474%);stroke-opacity:1;stroke-miterlimit:3.25;" d="M 45.402344 263.726563 L 49.480469 263.726563 "/><path style="fill:none;stroke-width:1.1;stroke-linecap:butt;stroke-linejoin:miter;stroke:rgb(99.998474%,99.998474%,99.998474%);stroke-opacity:1;stroke-miterlimit:3.25;" d="M 45.402344 249.449219 L 49.480469 249.449219 "/><path style="fill:none;stroke-width:1.1;stroke-linecap:butt;stroke-linejoin:miter;stroke:rgb(99.998474%,99.998474%,99.998474%);stroke-opacity:1;stroke-miterlimit:3.25;" d="M 45.402344 235.167969 L 49.480469 235.167969 "/><path style="fill:none;stroke-width:1.1;stroke-linecap:butt;stroke-linejoin:miter;stroke:rgb(99.998474%,99.998474%,99.998474%);stroke-opacity:1;stroke-miterlimit:3.25;" d="M 45.402344 220.890625 L 49.480469 220.890625 "/><path style="fill:none;stroke-width:1.1;stroke-linecap:butt;stroke-linejoin:miter;stroke:rgb(99.998474%,99.998474%,99.998474%);stroke-opacity:1;stroke-miterlimit:3.25;" d="M 45.402344 206.609375 L 49.480469 206.609375 "/><path style="fill:none;stroke-width:1.1;stroke-linecap:butt;stroke-linejoin:miter;stroke:rgb(99.998474%,99.998474%,99.998474%);stroke-opacity:1;stroke-miterlimit:3.25;" d="M 45.402344 192.332031 L 49.480469 192.332031 "/><path style="fill:none;stroke-width:1.1;stroke-linecap:butt;stroke-linejoin:miter;stroke:rgb(99.998474%,99.998474%,99.998474%);stroke-opacity:1;stroke-miterlimit:3.25;" d="M 45.402344 178.050781 L 49.480469 178.050781 "/><path style="fill:none;stroke-width:1.1;stroke-linecap:butt;stroke-linejoin:miter;stroke:rgb(99.998474%,99.998474%,99.998474%);stroke-opacity:1;stroke-miterlimit:3.25;" d="M 45.402344 163.773438 L 49.480469 163.773438 "/><path style="fill:none;stroke-width:1.1;stroke-linecap:butt;stroke-linejoin:miter;stroke:rgb(99.998474%,99.998474%,99.998474%);stroke-opacity:1;stroke-miterlimit:3.25;" d="M 45.402344 135.214844 L 49.480469 135.214844 "/><path style="fill:none;stroke-width:1.1;stroke-linecap:butt;stroke-linejoin:miter;stroke:rgb(99.998474%,99.998474%,99.998474%);stroke-opacity:1;stroke-miterlimit:3.25;" d="M 45.402344 120.9375 L 49.480469 120.9375 "/><path style="fill:none;stroke-width:1.1;stroke-linecap:butt;stroke-linejoin:miter;stroke:rgb(99.998474%,99.998474%,99.998474%);stroke-opacity:1;stroke-miterlimit:3.25;" d="M 45.402344 106.65625 L 49.480469 106.65625 "/><path style="fill:none;stroke-width:1.1;stroke-linecap:butt;stroke-linejoin:miter;stroke:rgb(99.998474%,99.998474%,99.998474%);stroke-opacity:1;stroke-miterlimit:3.25;" d="M 45.402344 92.378906 L 49.480469 92.378906 "/><path style="fill:none;stroke-width:1.1;stroke-linecap:butt;stroke-linejoin:miter;stroke:rgb(99.998474%,99.998474%,99.998474%);stroke-opacity:1;stroke-miterlimit:3.25;" d="M 45.402344 78.097656 L 49.480469 78.097656 "/><path style="fill:none;stroke-width:1.1;stroke-linecap:butt;stroke-linejoin:miter;stroke:rgb(99.998474%,99.998474%,99.998474%);stroke-opacity:1;stroke-miterlimit:3.25;" d="M 45.402344 63.820313 L 49.480469 63.820313 "/><path style="fill:none;stroke-width:1.1;stroke-linecap:butt;stroke-linejoin:miter;stroke:rgb(99.998474%,99.998474%,99.998474%);stroke-opacity:1;stroke-miterlimit:3.25;" d="M 45.402344 49.539063 L 49.480469 49.539063 "/><path style="fill:none;stroke-width:1.1;stroke-linecap:butt;stroke-linejoin:miter;stroke:rgb(99.998474%,99.998474%,99.998474%);stroke-opacity:1;stroke-miterlimit:3.25;" d="M 45.402344 35.261719 L 49.480469 35.261719 "/><path style="fill:none;stroke-width:1.1;stroke-linecap:butt;stroke-linejoin:miter;stroke:rgb(99.998474%,99.998474%,99.998474%);stroke-opacity:1;stroke-miterlimit:3.25;" d="M 45.402344 20.980469 L 49.480469 20.980469 "/><g style="fill:rgb(99.998474%,99.998474%,99.998474%);fill-opacity:1;">  <use xlink:href="#glyph2-1" x="245.967347" y="406.920465"/></g><g style="fill:rgb(99.998474%,99.998474%,99.998474%);fill-opacity:1;">  <use xlink:href="#glyph3-1" x="249.856995" y="406.920465"/>  <use xlink:href="#glyph3-2" x="259.194885" y="406.920465"/>  <use xlink:href="#glyph3-3" x="266.981017" y="406.920465"/>  <use xlink:href="#glyph3-4" x="274.76715" y="406.920465"/>  <use xlink:href="#glyph3-5" x="281.76715" y="406.920465"/>  <use xlink:href="#glyph3-6" x="289.553282" y="406.920465"/>  <use xlink:href="#glyph3-7" x="301.215391" y="406.920465"/>  <use xlink:href="#glyph3-4" x="308.215391" y="406.920465"/>  <use xlink:href="#glyph3-8" x="315.215391" y="406.920465"/>  <use xlink:href="#glyph3-3" x="318.325742" y="406.920465"/></g><g style="fill:rgb(99.998474%,99.998474%,99.998474%);fill-opacity:1;">  <use xlink:href="#glyph2-2" x="326.111874" y="406.920465"/></g><g style="fill:rgb(99.998474%,99.998474%,99.998474%);fill-opacity:1;">  <use xlink:href="#glyph2-3" x="333.89117" y="406.920465"/></g><g style="fill:rgb(99.998474%,99.998474%,99.998474%);fill-opacity:1;">  <use xlink:href="#glyph2-4" x="338.553279" y="406.920465"/></g><g style="fill:rgb(99.998474%,99.998474%,99.998474%);fill-opacity:1;">  <use xlink:href="#glyph3-9" x="346.640193" y="406.920465"/></g><g style="fill:rgb(99.998474%,99.998474%,99.998474%);fill-opacity:1;">  <use xlink:href="#glyph2-5" x="358.302302" y="406.920465"/></g><g style="fill:rgb(99.998474%,99.998474%,99.998474%);fill-opacity:1;">  <use xlink:href="#glyph4-1" x="12.673828" y="231.495231"/>  <use xlink:href="#glyph4-2" x="12.673828" y="222.943473"/>  <use xlink:href="#glyph4-3" x="12.673828" y="218.281363"/>  <use xlink:href="#glyph4-4" x="12.673828" y="210.495231"/>  <use xlink:href="#glyph4-5" x="12.673828" y="203.495231"/>  <use xlink:href="#glyph4-6" x="12.673828" y="199.605583"/>  <use xlink:href="#glyph4-7" x="12.673828" y="196.495231"/>  <use xlink:href="#glyph4-8" x="12.673828" y="188.709099"/></g><g style="fill:rgb(99.998474%,99.998474%,99.998474%);fill-opacity:1;">  <use xlink:href="#glyph4-9" x="12.673828" y="177.033319"/>  <use xlink:href="#glyph4-7" x="12.673828" y="173.143671"/>  <use xlink:href="#glyph4-10" x="12.673828" y="165.357538"/>  <use xlink:href="#glyph4-11" x="12.673828" y="162.247187"/>  <use xlink:href="#glyph4-12" x="12.673828" y="154.461054"/>  <use xlink:href="#glyph4-11" x="12.673828" y="146.674922"/></g></g></svg>